<svg width="329" height="97" viewBox="0 0 329 97" fill="none" xmlns="http://www.w3.org/2000/svg">
<path d="M72.9237 1.21444C54.0912 4.09162 28.4582 12.9847 12.2413 22.401C-3.4524 31.2941 -4.23709 34.9559 10.9335 29.7247C16.9494 27.6322 31.8585 26.3244 48.3369 26.3244C80.7706 26.5859 106.665 32.3403 163.163 51.4343C221.229 71.0515 255.232 71.5746 291.851 53.2653C305.975 46.2031 337.101 19.7853 326.9 23.7088C299.436 33.6481 290.02 36.0022 270.665 37.0484C242.677 38.8794 218.352 34.1712 160.809 15.6003C115.297 1.21444 94.8949 -2.18587 72.9237 1.21444Z" fill="#212E52"/>
<path d="M27.4135 43.0702C21.3976 44.9011 21.6592 45.1627 30.0292 45.4243C45.1998 45.9474 66.3863 52.2249 112.944 70.7958C174.411 94.8595 179.643 96.4288 206.584 96.4288C226.985 96.6904 232.217 95.6442 245.556 89.3667C253.926 85.4432 260.465 81.7814 259.942 81.2583C259.419 80.7351 252.095 81.5198 243.725 82.8276C223.847 86.2279 211.553 83.8739 150.609 63.9952C84.1725 42.5471 48.3385 36.2696 27.4135 43.0702Z" fill="#212E52"/>
</svg>
