<svg width="340" height="76" viewBox="0 0 340 76" fill="none" xmlns="http://www.w3.org/2000/svg">
<path d="M57.8794 7.58454C45.0629 16.2161 22.5686 18.3086 8.18266 12.2927C-4.63388 7.06142 -1.7567 11.7695 12.3677 18.8317C26.2304 25.8939 43.7551 25.8939 59.9719 18.8317C75.4041 12.0311 81.6816 11.508 76.7119 17.5239C71.7422 23.5398 59.1872 29.2942 45.8476 31.6482L33.8157 33.7407L43.7551 34.0023C49.2479 34.0023 61.5413 31.1251 70.696 27.4633C87.1744 20.9242 87.9591 20.9242 98.16 24.8476C113.331 31.1251 128.763 30.0789 144.718 22.232C157.796 15.693 163.027 15.1698 159.365 20.9242C156.75 25.3708 142.364 32.4329 131.901 34.5254L122.747 36.3564L131.901 36.6179C136.871 36.6179 147.334 33.7407 155.18 30.3404C172.967 21.9705 178.198 23.2783 164.597 32.4329C151.78 41.326 155.442 41.5876 170.351 32.9561C178.721 28.5095 183.952 27.2017 190.491 28.2479C203.308 30.3404 216.124 27.2017 227.372 19.6164C233.649 15.4314 238.096 13.862 239.665 15.4314C244.373 20.1395 223.971 30.8636 202.523 35.3101C198.861 36.0948 202.523 36.0948 210.37 35.5717C218.74 34.787 229.987 31.6482 237.573 27.7248C256.405 17.7855 258.497 24.0629 239.665 34.2639C232.864 37.9257 232.08 39.2335 236.526 37.9257C240.188 37.141 246.727 34.2639 250.912 31.6482C256.928 28.2479 262.682 27.4633 276.284 28.5095C290.931 29.2942 295.378 28.7711 302.701 24.0629C311.071 19.0933 320.226 8.36923 320.226 3.92268C320.226 2.87643 318.134 3.92268 315.518 6.27673C307.41 13.6005 292.239 18.5701 277.853 18.5701C267.391 18.5701 259.805 16.4776 246.204 9.67704L228.679 0.783932L215.34 9.67704C205.139 16.4776 199.384 18.5701 190.23 18.5701C177.675 18.5701 164.858 13.6005 155.704 5.23048L150.211 -0.00075531L140.271 7.58454C128.24 17.2623 113.854 21.9705 104.176 19.6164C93.7134 17.2623 78.5428 9.41548 74.6194 4.4458C70.1729 -0.785442 69.9113 -0.785442 57.8794 7.58454Z" fill="#212E52"/>
<path d="M310.811 25.3653C304.795 28.7656 294.856 32.9506 288.578 33.9969L277.069 36.3509L287.532 36.6125C298.517 36.8741 325.458 26.15 325.458 21.1803C325.458 17.2569 322.843 18.0416 310.811 25.3653Z" fill="#212E52"/>
<path d="M323.104 31.6453C316.827 36.0919 312.38 39.4922 313.426 39.4922C317.35 39.4922 335.921 28.7681 335.921 26.4141C335.921 23.0138 336.182 22.7522 323.104 31.6453Z" fill="#212E52"/>
<path d="M86.6517 44.1985C73.8352 52.83 51.3409 54.9225 36.955 48.9066C24.4 43.6754 27.0156 48.3835 40.3553 55.1841C55.2643 62.7694 77.4971 62.2463 92.1445 53.8763C103.915 47.0757 111.239 47.3372 105.484 54.3994C100.515 60.1538 87.9595 65.9081 74.6199 68.5238L62.588 70.6163L76.1893 69.8316C84.5592 69.3085 95.0217 66.4313 103.13 62.2463C110.192 58.5844 116.731 56.4919 117.516 57.7997C118.824 59.8922 115.947 62.5078 101.822 70.6163C97.1142 73.4934 97.1142 73.4934 103.13 71.9241C106.792 71.1394 112.285 68.7853 115.424 66.6928C119.87 63.8157 126.148 63.2925 139.487 64.6003C155.966 66.1697 159.366 65.6466 172.444 59.1075C180.552 55.1841 187.876 52.83 188.922 53.6147C191.8 56.7535 182.122 63.5541 167.998 68.5238C155.966 72.7088 155.181 73.2319 162.243 73.4934C166.69 73.4934 177.152 70.0931 185.261 65.9081C205.139 55.9688 207.493 61.7232 188.138 73.2319C183.43 76.1091 183.43 76.1091 189.446 74.5397C193.107 73.4934 199.123 70.6163 202.785 68.0006C207.755 64.6003 212.201 63.5541 219.002 64.8619C232.08 66.9544 244.897 64.0772 256.144 56.4919C266.606 49.1682 273.407 50.2144 266.345 58.0613C262.683 62.2463 250.651 67.216 232.603 71.9241C229.726 72.7088 232.865 72.7088 239.666 72.1856C246.728 71.4009 258.236 68.0006 265.56 64.3388C285.7 54.1379 286.224 59.6307 266.345 72.7088C262.16 75.5859 262.683 75.5859 268.699 73.4934C272.884 71.9241 278.638 69.0469 281.515 66.9544C285.177 64.6003 290.67 63.8157 299.302 64.8619C306.364 65.6466 314.995 65.6466 318.657 64.6003C325.458 63.031 333.828 52.83 337.228 42.3676L339.059 36.0901L333.043 42.106C323.888 50.7376 311.595 55.1841 296.948 55.1841C286.747 55.1841 281.515 53.3532 270.791 46.291L257.452 37.1363L244.112 46.291C224.233 59.6307 203.047 58.0613 184.999 41.5829L179.245 36.3516L169.305 44.4601C157.012 54.1379 143.934 58.5844 133.21 56.2304C123.009 54.1379 107.577 46.291 103.392 41.0598C98.9451 35.8285 98.6836 35.8285 86.6517 44.1985Z" fill="#212E52"/>
</svg>
