<svg width="329" height="97" viewBox="0 0 329 97" fill="none" xmlns="http://www.w3.org/2000/svg">
<path d="M113.498 3.14659C127.884 8.90096 138.347 15.7016 155.348 30.0875C204.522 71.6758 244.541 84.2308 276.19 68.2755C281.683 65.3983 288.483 60.4287 291.361 57.2899L296.592 51.274L284.822 57.5515C275.405 62.5212 269.128 63.829 252.126 63.829C233.555 63.829 229.109 62.7827 213.154 54.9359C203.214 50.2278 185.69 38.4575 173.919 28.7797C146.717 6.80846 133.116 -0.253716 117.683 0.00784302C105.652 0.269409 105.652 0.269409 113.498 3.14659Z" fill="#212E52"/>
<path d="M71.6482 7.59627C64.586 8.64252 54.3851 11.2581 49.4154 13.3506C40.5223 17.0125 41.307 17.0125 63.0166 15.9662C84.2031 14.92 86.8188 15.4431 102.251 22.7669C111.667 27.475 130.238 40.8146 146.193 54.6774C181.766 85.5417 203.214 96.5273 227.016 96.5273C239.571 96.5273 247.941 94.6964 257.619 90.2499C273.312 82.9261 279.328 76.3871 264.681 82.403C250.557 88.4189 229.37 86.3264 208.968 76.3871C199.552 71.9405 175.75 55.9852 155.871 40.8146C114.021 9.16564 99.8969 3.67284 71.6482 7.59627Z" fill="#212E52"/>
<path d="M309.931 20.9423C278.543 43.175 240.878 49.9756 208.968 38.99C201.121 36.3744 194.32 34.5435 193.797 35.0666C193.274 35.5897 201.644 40.2978 212.107 45.5291C228.585 53.3759 234.339 54.9453 248.464 54.9453C277.759 54.9453 301.822 42.6519 321.439 18.0651C325.886 12.3107 329.286 7.60259 328.763 7.86415C328.502 7.86415 319.87 13.6185 309.931 20.9423Z" fill="#212E52"/>
<path d="M38.9536 28.0037C31.1067 30.8808 19.8596 35.5889 14.1052 38.7277C1.81179 45.7899 -4.46569 51.2827 3.64273 48.1439C48.6314 30.3577 89.1735 29.8346 121.346 46.0514C129.192 50.2364 129.192 50.2364 124.484 45.0052C122.13 42.128 113.76 36.3736 106.437 32.4502C88.6504 22.7724 60.4017 20.9415 38.9536 28.0037Z" fill="#212E52"/>
</svg>
