<svg width="331" height="165" viewBox="0 0 331 165" fill="none" xmlns="http://www.w3.org/2000/svg">
<path d="M1.99891 6.41843L42.4238 24.2984C43.2892 24.6809 44.2756 24.6809 45.1397 24.2984L84.2087 7.0201L123.276 24.2984C124.142 24.6809 125.128 24.6809 125.992 24.2984L165.061 7.0201L204.129 24.2984C204.561 24.4897 205.025 24.5853 205.487 24.5853C205.95 24.5853 206.413 24.4897 206.846 24.2984L245.915 7.0201L284.986 24.2997C285.852 24.6823 286.838 24.6823 287.702 24.2997L328.131 6.41976C329.826 5.67067 330.592 3.69037 329.841 1.99694C329.091 0.303507 327.109 -0.461549 325.414 0.287546L286.342 17.5672L247.271 0.287546C246.405 -0.0949707 245.419 -0.0949707 244.555 0.287546L205.486 17.5659L166.418 0.287546C165.554 -0.0949707 164.567 -0.0949707 163.702 0.287546L124.634 17.5659L85.5659 0.287546C84.7005 -0.0949707 83.7141 -0.0949707 82.85 0.287546L43.7811 17.5659L4.71482 0.287546C3.01987 -0.461549 1.0391 0.303498 0.288005 1.9956C-0.461761 3.68903 0.303961 5.668 1.99891 6.41843Z" fill="#212E52"/>
<path d="M1.99891 53.0903L42.4238 70.9703C43.2892 71.3528 44.2756 71.3528 45.1397 70.9703L84.2087 53.692L123.276 70.9703C124.142 71.3528 125.128 71.3528 125.992 70.9703L165.061 53.692L204.129 70.9703C204.561 71.1616 205.025 71.2572 205.487 71.2572C205.95 71.2572 206.413 71.1616 206.846 70.9703L245.915 53.692L284.986 70.9716C285.852 71.3541 286.838 71.3541 287.702 70.9716L328.131 53.0916C329.826 52.3426 330.592 50.3622 329.841 48.6688C329.091 46.9753 327.109 46.2103 325.414 46.9594L286.342 64.239L247.271 46.9594C246.405 46.5769 245.419 46.5769 244.555 46.9594L205.486 64.2377L166.418 46.9594C165.554 46.5769 164.567 46.5769 163.702 46.9594L124.634 64.2377L85.5659 46.9594C84.7005 46.5769 83.7141 46.5769 82.85 46.9594L43.7811 64.2377L4.71482 46.9594C3.01987 46.2103 1.0391 46.9753 0.288005 48.6674C-0.461761 50.3609 0.303961 52.3399 1.99891 53.0903Z" fill="#212E52"/>
<path d="M1.99891 99.77L42.4238 117.65C43.2892 118.032 44.2756 118.032 45.1397 117.65L84.2087 100.372L123.276 117.65C124.142 118.032 125.128 118.032 125.992 117.65L165.061 100.372L204.129 117.65C204.561 117.841 205.025 117.937 205.487 117.937C205.95 117.937 206.413 117.841 206.846 117.65L245.915 100.372L284.986 117.651C285.852 118.034 286.838 118.034 287.702 117.651L328.131 99.7713C329.826 99.0222 330.592 97.0419 329.841 95.3485C329.091 93.6551 327.109 92.89 325.414 93.6391L286.342 110.919L247.271 93.6391C246.405 93.2566 245.419 93.2566 244.555 93.6391L205.486 110.917L166.418 93.6391C165.554 93.2566 164.567 93.2566 163.702 93.6391L124.634 110.917L85.5659 93.6391C84.7005 93.2566 83.7141 93.2566 82.85 93.6391L43.7811 110.917L4.71482 93.6391C3.01987 92.89 1.0391 93.6551 0.288005 95.3472C-0.461761 97.0406 0.303961 99.0196 1.99891 99.77Z" fill="#212E52"/>
<path d="M1.99891 146.438L42.4238 164.318C43.2892 164.7 44.2756 164.7 45.1397 164.318L84.2087 147.04L123.276 164.318C124.142 164.7 125.128 164.7 125.992 164.318L165.061 147.04L204.129 164.318C204.561 164.509 205.025 164.605 205.487 164.605C205.95 164.605 206.413 164.509 206.846 164.318L245.915 147.04L284.986 164.319C285.852 164.702 286.838 164.702 287.702 164.319L328.131 146.439C329.826 145.69 330.592 143.71 329.841 142.016C329.091 140.323 327.109 139.559 325.414 140.307L286.342 157.587L247.271 140.307C246.405 139.925 245.419 139.925 244.555 140.307L205.486 157.585L166.418 140.307C165.554 139.925 164.567 139.925 163.702 140.307L124.634 157.585L85.5659 140.307C84.7005 139.925 83.7141 139.925 82.85 140.307L43.7811 157.585L4.71482 140.307C3.01987 139.558 1.0391 140.323 0.288005 142.015C-0.461761 143.709 0.303961 145.688 1.99891 146.438Z" fill="#212E52"/>
</svg>
