<svg width="215" height="311" viewBox="0 0 215 311" fill="none" xmlns="http://www.w3.org/2000/svg">
<path d="M99.9373 0.5961C90.7563 3.04697 84.4151 12.7337 85.8934 21.9925C86.4381 25.4549 87.4106 27.8668 89.3947 30.6678C90.9897 32.9631 94.1019 35.7641 95.0356 35.7641C95.9692 35.7641 96.475 34.7137 96.0081 33.8578C95.7747 33.391 95.4246 33.0409 95.269 33.0409C94.6854 33.0409 91.3787 29.5007 90.4061 27.8279C88.7722 25.0658 88.1109 22.0314 88.3054 18.219C88.461 15.3013 88.6555 14.4454 89.8615 11.9557C93.1682 5.2644 98.7313 2.03549 106.278 2.38562C109.274 2.50232 110.208 2.73575 112.464 3.82501C121.1 7.98761 124.679 18.219 120.517 27.0888C118.377 31.7571 113.592 35.4529 108.224 36.6588L105.928 37.2035L106.084 48.3296L106.201 59.4557L105.306 59.6503C104.8 59.767 99.3148 59.9615 93.0904 60.0782C80.875 60.3505 62.2017 61.2453 56.4442 61.8288C54.4601 62.0622 51.309 62.3734 49.4417 62.5679C45.2791 62.9959 43.723 63.4627 43.5674 64.2408C43.4507 64.8243 43.9953 65.0188 50.2976 66.6916C55.0048 67.9365 58.6227 68.4812 72.8611 69.9984C74.5728 70.154 77.3738 70.5041 79.0855 70.7764C80.7972 71.0098 83.2481 71.3599 84.5319 71.5545C93.0126 72.7993 98.2256 74.5889 101.104 77.2731C102.505 78.5569 103.711 81.0467 104.178 83.5754C104.411 84.937 104.567 115.942 104.567 171.34V257.003L103.672 258.326C102.544 259.999 99.8984 261.594 96.9807 262.372C91.7288 263.772 81.6142 263.5 73.4835 261.749C68.4651 260.66 57.2611 256.925 51.2701 254.28C43.9953 251.129 30.3016 243.037 25.2832 238.952L23.6104 237.591L25.4777 236.696C26.4892 236.19 27.8507 235.373 28.5121 234.829L29.6792 233.856L28.7066 233.039C28.162 232.572 25.2054 230.511 22.0932 228.41C18.981 226.348 14.4293 223.275 11.9785 221.563C3.38101 215.572 -1.36511 212.888 0.346605 214.949C0.618923 215.261 1.04685 217.4 1.31917 219.618C1.7471 223.158 2.09722 224.247 3.73113 227.71C7.6992 236.035 12.0174 242.22 18.2807 248.561C32.5191 263.033 49.2083 273.576 66.8312 279.217C69.5154 280.072 73.7169 281.434 76.1678 282.212C84.6096 284.896 90.6785 288.359 95.6191 293.338C98.9258 296.723 103.594 303.531 105.384 307.693C106.162 309.522 107.018 311 107.329 311C107.601 311 108.457 309.561 109.235 307.81C111.063 303.647 115.187 297.54 118.416 294.116C124.251 287.931 131.098 284.157 142.224 281.006C165.138 274.548 187.39 260.232 201.745 242.609C204.935 238.719 207.97 233.895 210.615 228.526C212.366 224.986 212.794 223.664 213.144 220.94C213.338 219.112 213.766 216.895 214.039 216C214.35 215.066 214.389 214.327 214.233 214.327C213.65 214.327 209.137 217.167 203.613 220.979C200.812 222.924 196.143 226.037 193.265 227.943C190.386 229.849 187.507 231.833 186.924 232.378C186.301 232.922 185.601 233.428 185.367 233.506C184.706 233.701 186.924 235.568 189.102 236.579C190.114 237.085 190.93 237.591 190.93 237.707C190.93 238.135 184.395 242.609 179.299 245.721C176.614 247.355 172.607 249.767 170.468 251.129C161.754 256.497 147.865 261.983 138.373 263.772C131.76 264.978 128.725 265.212 122.462 265.017C118.377 264.862 116.938 264.939 117.21 265.251C118.494 266.573 129.853 266.729 137.634 265.445C145.609 264.2 158.33 259.804 167.667 255.175C176.186 250.934 189.141 241.87 191.864 238.33C193.148 236.657 192.876 235.879 190.775 234.751C189.997 234.323 189.374 233.895 189.374 233.778C189.374 233.662 190.464 232.961 191.786 232.222C194.198 230.861 206.803 221.991 209.876 219.54C210.771 218.801 211.588 218.217 211.666 218.217C212.093 218.217 208.748 225.959 206.569 229.966C203.029 236.657 199.839 240.82 193.265 247.433C182.411 258.404 171.829 265.756 157.28 272.525C153.156 274.47 147.437 276.532 137.945 279.489C128.57 282.407 120.439 287.425 115.654 293.183C112.892 296.489 109.391 302.286 108.262 305.476C107.718 306.954 107.29 307.654 107.134 307.304C107.018 306.993 106.629 305.943 106.317 305.009C105.267 301.975 100.988 295.283 98.07 292.132C94.4909 288.32 90.9897 285.674 86.049 283.224C82.3144 281.356 80.4082 280.656 68.3873 276.766C52.126 271.475 36.4482 262.022 23.338 249.534C14.4683 241.092 8.67176 232.65 4.15906 221.524C2.79747 218.256 2.75857 217.828 3.88674 218.879C4.7037 219.618 11.4728 224.52 17.3859 228.682C18.7475 229.616 21.1595 231.133 22.7156 232.028L25.5555 233.662L24.155 234.595C23.3769 235.101 22.5211 235.879 22.2099 236.346C21.743 237.085 21.8986 237.318 24.155 239.536C30.6128 245.916 42.7893 253.658 53.4098 258.092C67.8815 264.2 79.9024 266.846 90.7563 266.34C99.9762 265.912 105.345 263.189 106.862 258.209C107.445 256.342 107.484 248.522 107.368 170.951C107.329 111.041 107.173 85.2482 106.862 84.0033C105.423 78.129 101.766 74.0053 96.3582 72.1769C93.5184 71.2043 90.1338 70.3485 87.6441 69.9594C82.6645 69.1814 75.3508 68.2477 70.1379 67.6642C66.7923 67.3141 62.8242 66.8083 59.0506 66.3026C55.6661 65.8358 51.309 64.8243 51.4646 64.552C51.6202 64.3186 55.0048 63.9684 64.3025 63.1515C67.5703 62.8792 83.5982 62.2956 96.8251 61.9844L106.434 61.751L107.718 64.163C109.118 66.8472 111.025 68.6368 113.787 69.9984C116.549 71.321 117.016 71.4767 119.35 71.9435C121.801 72.4881 134.716 72.2158 138.801 71.5934C143.041 70.932 150.55 69.5315 155.84 68.4034C159.575 67.5864 161.287 67.2752 163.31 66.8861C170.118 65.6413 171.596 65.1744 171.401 64.2019C171.285 63.5405 170.273 63.346 164.01 62.6069C152.378 61.2842 144.403 60.8173 123.045 60.156L108.262 59.6892V48.8353V37.9815L110.208 37.5147C113.514 36.7755 115.926 35.375 118.805 32.4962C120.633 30.6289 121.956 28.8783 122.773 27.2055C127.753 16.8963 122.034 4.21405 110.869 0.751709C107.873 -0.181946 103.049 -0.259766 99.9373 0.5961ZM136.078 62.6069C150.044 63.1126 162.026 64.0462 162.337 64.5909C162.454 64.7465 161.52 65.0966 160.314 65.33C159.069 65.5634 156.93 66.0303 155.529 66.3415C148.177 68.0143 146.115 68.4034 137.828 69.5704C126.469 71.2043 119.466 70.7375 114.292 67.9754C111.997 66.7694 109.819 64.4742 109.391 62.8403L109.118 61.7121L117.443 61.9844C122.034 62.1011 130.398 62.3734 136.078 62.6069Z" fill="#212E52"/>
</svg>
