<svg width="331" height="165" viewBox="0 0 331 165" fill="none" xmlns="http://www.w3.org/2000/svg">
<path d="M3.35398 6.70463C12.189 6.70463 16.431 10.4568 21.3431 14.8026C26.5263 19.3875 32.4021 24.5846 43.7802 24.5846C55.1583 24.5846 61.0341 19.3875 66.2187 14.8026C71.1307 10.4581 75.3728 6.70463 84.2078 6.70463C93.0428 6.70463 97.2848 10.4568 102.197 14.8026C107.38 19.3875 113.256 24.5846 124.634 24.5846C136.012 24.5846 141.888 19.3875 147.072 14.8026C151.985 10.4581 156.227 6.70463 165.062 6.70463C173.897 6.70463 178.139 10.4568 183.051 14.8026C188.234 19.3875 194.11 24.5846 205.488 24.5846C216.866 24.5846 222.742 19.3875 227.926 14.8026C232.838 10.4581 237.08 6.70463 245.915 6.70463C254.75 6.70463 258.994 10.4568 263.906 14.8026C269.09 19.3875 274.965 24.5846 286.344 24.5846C297.724 24.5846 303.599 19.3875 308.784 14.8026C313.696 10.4581 317.939 6.70463 326.774 6.70463C328.628 6.70463 330.13 5.2038 330.13 3.35231C330.13 1.50083 328.628 0 326.774 0C315.395 0 309.519 5.19716 304.336 9.78204C299.424 14.1265 295.181 17.8799 286.346 17.8799C277.51 17.8799 273.267 14.1279 268.355 9.78204C263.171 5.19716 257.296 0 245.917 0C234.537 0 228.663 5.19716 223.478 9.78204C218.566 14.1265 214.324 17.8799 205.489 17.8799C196.654 17.8799 192.412 14.1279 187.5 9.78204C182.317 5.19716 176.441 0 165.063 0C153.685 0 147.809 5.19716 142.624 9.78204C137.712 14.1265 133.47 17.8799 124.635 17.8799C115.8 17.8799 111.558 14.1279 106.646 9.78204C101.463 5.19716 95.5872 0 84.2091 0C72.831 0 66.9552 5.19716 61.7706 9.78204C56.8586 14.1265 52.6166 17.8799 43.7815 17.8799C34.9465 17.8799 30.7045 14.1279 25.7925 9.78204C20.6092 5.19716 14.7334 0 3.35532 0C1.50217 0 0 1.50083 0 3.35231C0 5.2038 1.50217 6.70463 3.35532 6.70463H3.35398Z" fill="#212E52"/>
<path d="M3.35398 53.3765C12.189 53.3765 16.431 57.1286 21.3431 61.4744C26.5263 66.0593 32.4021 71.2565 43.7802 71.2565C55.1583 71.2565 61.0341 66.0593 66.2187 61.4744C71.1307 57.13 75.3728 53.3765 84.2078 53.3765C93.0428 53.3765 97.2848 57.1286 102.197 61.4744C107.38 66.0593 113.256 71.2565 124.634 71.2565C136.012 71.2565 141.888 66.0593 147.072 61.4744C151.985 57.13 156.227 53.3765 165.062 53.3765C173.897 53.3765 178.139 57.1286 183.051 61.4744C188.234 66.0593 194.11 71.2565 205.488 71.2565C216.866 71.2565 222.742 66.0593 227.926 61.4744C232.838 57.13 237.08 53.3765 245.915 53.3765C254.75 53.3765 258.994 57.1286 263.906 61.4744C269.09 66.0593 274.965 71.2565 286.344 71.2565C297.724 71.2565 303.599 66.0593 308.784 61.4744C313.696 57.13 317.939 53.3765 326.774 53.3765C328.628 53.3765 330.13 51.8757 330.13 50.0242C330.13 48.1727 328.628 46.6719 326.774 46.6719C315.395 46.6719 309.519 51.869 304.336 56.4539C299.424 60.7984 295.181 64.5519 286.346 64.5519C277.51 64.5519 273.267 60.7997 268.355 56.4539C263.171 51.869 257.296 46.6719 245.917 46.6719C234.537 46.6719 228.663 51.869 223.478 56.4539C218.566 60.7984 214.324 64.5519 205.489 64.5519C196.654 64.5519 192.412 60.7997 187.5 56.4539C182.317 51.869 176.441 46.6719 165.063 46.6719C153.685 46.6719 147.809 51.869 142.624 56.4539C137.712 60.7984 133.47 64.5519 124.635 64.5519C115.8 64.5519 111.558 60.7997 106.646 56.4539C101.463 51.869 95.5872 46.6719 84.2091 46.6719C72.831 46.6719 66.9552 51.869 61.7706 56.4539C56.8586 60.7984 52.6166 64.5519 43.7815 64.5519C34.9465 64.5519 30.7045 60.7997 25.7925 56.4539C20.6092 51.869 14.7334 46.6719 3.35532 46.6719C1.50217 46.6719 0 48.1727 0 50.0242C0 51.8757 1.50217 53.3765 3.35532 53.3765H3.35398Z" fill="#212E52"/>
<path d="M3.35398 100.052C12.189 100.052 16.431 103.804 21.3431 108.15C26.5263 112.735 32.4021 117.932 43.7802 117.932C55.1583 117.932 61.0341 112.735 66.2187 108.15C71.1307 103.806 75.3728 100.052 84.2078 100.052C93.0428 100.052 97.2848 103.804 102.197 108.15C107.38 112.735 113.256 117.932 124.634 117.932C136.012 117.932 141.888 112.735 147.072 108.15C151.985 103.806 156.227 100.052 165.062 100.052C173.897 100.052 178.139 103.804 183.051 108.15C188.234 112.735 194.11 117.932 205.488 117.932C216.866 117.932 222.742 112.735 227.926 108.15C232.838 103.806 237.08 100.052 245.915 100.052C254.75 100.052 258.994 103.804 263.906 108.15C269.09 112.735 274.965 117.932 286.344 117.932C297.724 117.932 303.599 112.735 308.784 108.15C313.696 103.806 317.939 100.052 326.774 100.052C328.628 100.052 330.13 98.5515 330.13 96.7C330.13 94.8485 328.628 93.3477 326.774 93.3477C315.395 93.3477 309.519 98.5448 304.336 103.13C299.424 107.474 295.181 111.228 286.346 111.228C277.51 111.228 273.267 107.476 268.355 103.13C263.171 98.5448 257.296 93.3477 245.917 93.3477C234.537 93.3477 228.663 98.5448 223.478 103.13C218.566 107.474 214.324 111.228 205.489 111.228C196.654 111.228 192.412 107.476 187.5 103.13C182.317 98.5448 176.441 93.3477 165.063 93.3477C153.685 93.3477 147.809 98.5448 142.624 103.13C137.712 107.474 133.47 111.228 124.635 111.228C115.8 111.228 111.558 107.476 106.646 103.13C101.463 98.5448 95.5872 93.3477 84.2091 93.3477C72.831 93.3477 66.9552 98.5448 61.7706 103.13C56.8586 107.474 52.6166 111.228 43.7815 111.228C34.9465 111.228 30.7045 107.476 25.7925 103.13C20.6092 98.5448 14.7334 93.3477 3.35532 93.3477C1.50217 93.3477 0 94.8485 0 96.7C0 98.5515 1.50217 100.052 3.35532 100.052H3.35398Z" fill="#212E52"/>
<path d="M3.35398 146.724C12.189 146.724 16.431 150.476 21.3431 154.822C26.5263 159.407 32.4021 164.604 43.7802 164.604C55.1583 164.604 61.0341 159.407 66.2187 154.822C71.1307 150.478 75.3728 146.724 84.2078 146.724C93.0428 146.724 97.2848 150.476 102.197 154.822C107.38 159.407 113.256 164.604 124.634 164.604C136.012 164.604 141.888 159.407 147.072 154.822C151.985 150.478 156.227 146.724 165.062 146.724C173.897 146.724 178.139 150.476 183.051 154.822C188.234 159.407 194.11 164.604 205.488 164.604C216.866 164.604 222.742 159.407 227.926 154.822C232.838 150.478 237.08 146.724 245.915 146.724C254.75 146.724 258.994 150.476 263.906 154.822C269.09 159.407 274.965 164.604 286.344 164.604C297.724 164.604 303.599 159.407 308.784 154.822C313.696 150.478 317.939 146.724 326.774 146.724C328.628 146.724 330.13 145.223 330.13 143.372C330.13 141.52 328.628 140.02 326.774 140.02C315.395 140.02 309.519 145.217 304.336 149.802C299.424 154.146 295.181 157.9 286.346 157.9C277.51 157.9 273.267 154.147 268.355 149.802C263.171 145.217 257.296 140.02 245.917 140.02C234.537 140.02 228.663 145.217 223.478 149.802C218.566 154.146 214.324 157.9 205.489 157.9C196.654 157.9 192.412 154.147 187.5 149.802C182.317 145.217 176.441 140.02 165.063 140.02C153.685 140.02 147.809 145.217 142.624 149.802C137.712 154.146 133.47 157.9 124.635 157.9C115.8 157.9 111.558 154.147 106.646 149.802C101.463 145.217 95.5872 140.02 84.2091 140.02C72.831 140.02 66.9552 145.217 61.7706 149.802C56.8586 154.146 52.6166 157.9 43.7815 157.9C34.9465 157.9 30.7045 154.147 25.7925 149.802C20.6092 145.217 14.7334 140.02 3.35532 140.02C1.50217 140.02 0 141.52 0 143.372C0 145.223 1.50217 146.724 3.35532 146.724H3.35398Z" fill="#212E52"/>
</svg>
