<svg width="331" height="167" viewBox="0 0 331 167" fill="none" xmlns="http://www.w3.org/2000/svg">
<path d="M326.797 32.5219H318.539C317.534 24.0321 312.699 16.1998 304.668 10.1925C295.884 3.61931 284.258 0 271.933 0C266.14 0 260.484 0.798261 255.121 2.37348C253.928 2.72412 253.027 3.70828 252.787 4.92888C252.546 6.14815 253.005 7.40064 253.975 8.17763C255.839 9.66918 257.925 11.1023 259.943 12.4902C269.396 18.9904 275.195 23.5872 271.758 32.5219H255.361C254.356 24.0321 249.521 16.1998 241.49 10.1925C232.705 3.61931 221.079 0 208.753 0C202.961 0 197.304 0.798261 191.943 2.37348C190.749 2.72412 189.849 3.70828 189.608 4.92888C189.368 6.14815 189.826 7.40064 190.797 8.17763C192.661 9.66918 194.746 11.1036 196.764 12.4902C206.216 18.9904 212.016 23.5872 208.579 32.5219H192.181C191.176 24.0321 186.341 16.1998 178.31 10.1925C169.526 3.61931 157.899 0 145.573 0C139.781 0 134.124 0.798261 128.762 2.37348C127.568 2.72412 126.668 3.70828 126.427 4.92888C126.187 6.14815 126.645 7.40064 127.616 8.17763C129.48 9.66918 131.565 11.1036 133.583 12.4902C143.035 18.9904 148.835 23.5872 145.398 32.5219H129C127.995 24.0321 123.16 16.1998 115.129 10.1925C106.345 3.61931 94.7178 0 82.3919 0C76.5998 0 70.9433 0.798261 65.5807 2.37348C64.3869 2.72412 63.4869 3.70828 63.2463 4.92888C63.0057 6.14815 63.4643 7.40064 64.4347 8.17763C66.2985 9.66918 68.3843 11.1023 70.401 12.4902C79.8541 18.9904 85.6529 23.5872 82.2164 32.5219H65.8186C64.8136 24.0321 59.9787 16.1998 51.9479 10.1925C43.1634 3.61931 31.5367 0 19.2108 0C13.4187 0 7.76224 0.798261 2.40088 2.37348C1.2071 2.72412 0.307122 3.70828 0.0665058 4.92888C-0.174111 6.14815 0.284519 7.40064 1.25496 8.17763C3.11874 9.66918 5.20454 11.1023 7.22119 12.4902C16.6744 18.9904 22.4731 23.5872 19.0366 32.5219H7.64925C5.80541 32.5219 4.30987 34.0161 4.30987 35.8583C4.30987 37.7005 5.80408 39.1946 7.64925 39.1946H21.1982C21.1982 39.1946 21.2062 39.1946 21.2102 39.1946C21.2182 39.1946 21.2261 39.1933 21.2341 39.1933C21.367 39.1933 21.4987 39.1827 21.6276 39.1668C21.6622 39.1628 21.6954 39.1561 21.73 39.1508C21.8456 39.1322 21.9599 39.1096 22.0716 39.0791C22.0942 39.0738 22.1155 39.0685 22.1381 39.0618C22.2777 39.022 22.4146 38.9742 22.5449 38.9171C22.5475 38.9171 22.5489 38.9144 22.5515 38.9144C22.6765 38.86 22.7961 38.7962 22.9131 38.7271C22.9384 38.7125 22.9636 38.6979 22.9875 38.682C23.1019 38.6103 23.2135 38.5332 23.3186 38.4482C23.3225 38.4456 23.3265 38.4429 23.3305 38.4389C23.4382 38.3513 23.5379 38.2543 23.6336 38.1534C23.6562 38.1295 23.6788 38.1042 23.7014 38.079C23.7918 37.978 23.8756 37.8744 23.9527 37.7629C23.9567 37.7576 23.9606 37.7536 23.9633 37.7483C24.0497 37.6221 24.1255 37.4893 24.1946 37.3525C24.1986 37.3458 24.2026 37.3405 24.2066 37.3325C31.9302 21.6613 20.1932 13.3164 11.3542 7.23463C13.9239 6.86009 16.5494 6.67281 19.2095 6.67281C41.3249 6.67281 59.3193 19.7514 59.3379 35.833C59.3379 35.8423 59.3379 35.8503 59.3379 35.8583C59.3379 37.7005 60.8321 39.1946 62.6773 39.1946H84.378C84.378 39.1946 84.386 39.1946 84.3899 39.1946C84.3979 39.1946 84.4046 39.1933 84.4125 39.1933C84.5468 39.1933 84.6797 39.1814 84.81 39.1654C84.8433 39.1614 84.8752 39.1561 84.9084 39.1508C85.0267 39.1322 85.1437 39.1083 85.258 39.0778C85.278 39.0725 85.2979 39.0685 85.3165 39.0632C85.5944 38.9835 85.8562 38.8679 86.0995 38.7231C86.1208 38.7098 86.1421 38.6979 86.1633 38.6846C86.4053 38.5332 86.6259 38.3526 86.82 38.1467C86.8386 38.1268 86.8572 38.1056 86.8759 38.0856C87.0766 37.8625 87.2468 37.6141 87.381 37.3432C87.3824 37.3392 87.385 37.3365 87.3877 37.3325C95.1113 21.6613 83.3743 13.3164 74.5353 7.23463C77.105 6.86009 79.7305 6.67281 82.3906 6.67281C104.513 6.67281 122.51 19.7594 122.52 35.8463C122.52 35.8503 122.52 35.8543 122.52 35.8596C122.52 37.7018 124.015 39.196 125.86 39.196H147.559C147.559 39.196 147.567 39.196 147.571 39.196C147.582 39.196 147.592 39.1933 147.603 39.1933C147.732 39.1933 147.859 39.1827 147.984 39.1668C148.023 39.1614 148.06 39.1548 148.099 39.1495C148.208 39.1322 148.314 39.1097 148.419 39.0818C148.448 39.0738 148.478 39.0672 148.506 39.0592C148.64 39.0207 148.77 38.9742 148.896 38.9197C148.914 38.9117 148.93 38.9038 148.947 38.8958C149.053 38.848 149.157 38.7935 149.257 38.7351C149.294 38.7138 149.33 38.6926 149.366 38.6687C149.457 38.6103 149.546 38.5478 149.632 38.4801C149.665 38.4535 149.698 38.4283 149.731 38.4004C149.818 38.3274 149.9 38.249 149.979 38.1679C150.014 38.1308 150.049 38.0923 150.084 38.0524C150.151 37.9754 150.215 37.8957 150.275 37.812C150.295 37.7841 150.318 37.7576 150.337 37.7283C150.415 37.6154 150.482 37.4959 150.545 37.3737C150.553 37.3578 150.563 37.3445 150.571 37.3286C158.295 21.6573 146.557 13.3124 137.72 7.23062C140.29 6.85607 142.916 6.66883 145.576 6.66883C167.703 6.66883 185.705 19.762 185.705 35.8556C185.705 37.6978 187.2 39.192 189.045 39.192H210.743C210.743 39.192 210.751 39.192 210.755 39.192C210.764 39.192 210.773 39.1907 210.783 39.1907C210.914 39.1907 211.043 39.18 211.17 39.1641C211.205 39.1601 211.241 39.1535 211.279 39.1482C211.392 39.1309 211.502 39.107 211.61 39.0791C211.635 39.0724 211.66 39.0672 211.685 39.0592C211.822 39.0193 211.955 38.9729 212.084 38.9171C212.093 38.9131 212.103 38.9078 212.112 38.9038C212.228 38.852 212.339 38.7935 212.447 38.7298C212.478 38.7112 212.508 38.6926 212.539 38.674C212.642 38.6089 212.742 38.5385 212.837 38.4628C212.85 38.4522 212.865 38.4429 212.878 38.431C212.98 38.3473 213.076 38.2543 213.166 38.1587C213.196 38.1281 213.225 38.0963 213.253 38.0644C213.331 37.9754 213.406 37.8837 213.475 37.7868C213.487 37.7695 213.5 37.7549 213.512 37.7377C213.593 37.6181 213.666 37.4919 213.731 37.3631C213.737 37.3525 213.745 37.3419 213.75 37.3312C221.474 21.66 209.735 13.315 200.897 7.2333C203.467 6.85875 206.093 6.67147 208.753 6.67147C230.88 6.67147 248.883 19.7647 248.883 35.8583C248.883 37.7005 250.377 39.1946 252.222 39.1946H273.919C273.919 39.1946 273.927 39.1946 273.931 39.1946C273.939 39.1946 273.948 39.1933 273.956 39.1933C274.089 39.1933 274.219 39.1827 274.347 39.1668C274.381 39.1628 274.416 39.1561 274.452 39.1508C274.567 39.1336 274.679 39.1096 274.791 39.0804C274.813 39.0738 274.837 39.0698 274.86 39.0632C274.998 39.0233 275.134 38.9755 275.264 38.9184C275.269 38.9157 275.273 38.9144 275.279 38.9118C275.401 38.8586 275.518 38.7962 275.631 38.7285C275.657 38.7125 275.684 38.6966 275.712 38.6793C275.822 38.6089 275.93 38.5346 276.032 38.4522C276.039 38.4469 276.047 38.4416 276.055 38.4363C276.161 38.3499 276.26 38.2543 276.354 38.1547C276.379 38.1281 276.403 38.1002 276.428 38.0737C276.515 37.9767 276.596 37.8771 276.67 37.7709C276.677 37.7616 276.684 37.7536 276.69 37.7443C276.775 37.6207 276.85 37.4906 276.918 37.3551C276.922 37.3471 276.927 37.3405 276.931 37.3312C284.655 21.66 272.916 13.315 264.079 7.23463C266.648 6.86009 269.274 6.67147 271.934 6.67147C294.052 6.67147 312.048 19.754 312.062 35.8383C312.062 35.845 312.062 35.8516 312.062 35.8569C312.062 37.6991 313.557 39.1933 315.402 39.1933H326.801C328.645 39.1933 330.14 37.6991 330.14 35.8569C330.14 34.0147 328.646 32.5205 326.801 32.5205L326.797 32.5219Z" fill="#212E52"/>
<path d="M326.796 75.009H318.538C317.533 66.5192 312.698 58.687 304.668 52.6783C295.883 46.1051 284.256 42.4858 271.93 42.4858C266.138 42.4858 260.482 43.284 255.119 44.8593C253.925 45.2099 253.025 46.1941 252.785 47.4147C252.544 48.6339 253.003 49.8864 253.973 50.6634C255.837 52.155 257.923 53.5894 259.941 54.976C269.393 61.4761 275.193 66.073 271.755 75.0077H255.357C254.352 66.5179 249.517 58.6856 241.486 52.6769C232.702 46.1038 221.075 42.4845 208.749 42.4845C202.957 42.4845 197.301 43.2827 191.939 44.8579C190.746 45.2086 189.846 46.1928 189.605 47.4134C189.364 48.6326 189.823 49.8851 190.793 50.6621C192.657 52.1536 194.743 53.5881 196.761 54.9747C206.213 61.4748 212.013 66.0716 208.575 75.0063H192.177C191.172 66.5166 186.337 58.6843 178.307 52.6756C169.522 46.1024 157.896 42.4831 145.57 42.4831C139.777 42.4831 134.121 43.2814 128.758 44.8566C127.565 45.2072 126.665 46.1914 126.424 47.412C126.183 48.6313 126.642 49.8837 127.612 50.6607C129.476 52.1523 131.562 53.5867 133.58 54.9734C143.032 61.4735 148.832 66.0703 145.394 75.005H128.996C127.991 66.5152 123.156 58.683 115.126 52.6743C106.341 46.1011 94.7144 42.4818 82.3885 42.4818C76.5964 42.4818 70.9399 43.28 65.5772 44.8552C64.3835 45.2059 63.4835 46.1901 63.2429 47.4107C63.0022 48.63 63.4609 49.8825 64.4313 50.6594C66.2951 52.151 68.3809 53.5854 70.3989 54.972C79.8507 61.4721 85.6508 66.069 82.213 75.0036H65.8152C64.8102 66.5139 59.9752 58.6816 51.9445 52.6729C43.16 46.0998 31.5333 42.4805 19.2074 42.4805C13.4153 42.4805 7.75882 43.2787 2.39746 44.854C1.20369 45.2046 0.303704 46.1887 0.0630879 47.4093C-0.177529 48.6286 0.281101 49.8811 1.25154 50.6581C3.11532 52.1496 5.20111 53.5841 7.21909 54.9707C16.6709 61.4708 22.471 66.0676 19.0332 75.0023H7.64583C5.80199 75.0023 4.30645 76.4952 4.30645 78.3387C4.30645 80.1823 5.80066 81.6751 7.64583 81.6751H21.1921C21.1921 81.6751 21.2028 81.6751 21.2081 81.6751C21.2201 81.6751 21.232 81.6724 21.244 81.6724C21.3729 81.6724 21.4979 81.6618 21.6229 81.6459C21.6587 81.6419 21.696 81.6353 21.7319 81.6286C21.8449 81.6114 21.9565 81.5874 22.0669 81.5582C22.0908 81.5516 22.1147 81.5463 22.1387 81.5397C22.2769 81.4998 22.4125 81.452 22.5428 81.3962C22.5468 81.3949 22.5521 81.3922 22.5561 81.3896C22.6784 81.3351 22.7967 81.2727 22.911 81.2063C22.9376 81.1903 22.9629 81.1744 22.9895 81.1584C23.1024 81.0867 23.2115 81.011 23.3151 80.9274C23.3205 80.9234 23.3258 80.9194 23.3311 80.9154C23.4374 80.8278 23.5371 80.7321 23.6329 80.6312C23.6568 80.6059 23.6794 80.5807 23.702 80.5541C23.7911 80.4545 23.8748 80.3509 23.9519 80.2407C23.9559 80.2353 23.9599 80.23 23.9639 80.2234C24.0503 80.0985 24.1261 79.9657 24.1952 79.8289C24.1992 79.8223 24.2032 79.8157 24.2072 79.809C31.9308 64.1378 20.1924 55.7928 11.3548 49.7111C13.9245 49.3365 16.55 49.1493 19.21 49.1493C41.3255 49.1493 59.3199 62.2279 59.3385 78.3095C59.3385 78.3188 59.3385 78.3268 59.3385 78.3347C59.3385 80.1769 60.8327 81.6711 62.6779 81.6711H84.3746C84.3746 81.6711 84.3852 81.6711 84.3905 81.6711C84.4025 81.6711 84.4131 81.6685 84.4238 81.6685C84.554 81.6685 84.6803 81.6579 84.8066 81.6419C84.8412 81.6379 84.8757 81.6313 84.9116 81.6259C85.0273 81.6074 85.1416 81.5848 85.2533 81.5542C85.2745 81.5489 85.2971 81.5436 85.3184 81.537C85.5949 81.4573 85.8555 81.3431 86.0974 81.1996C86.12 81.1863 86.1426 81.1731 86.1652 81.1584C86.4058 81.007 86.6252 80.8277 86.8206 80.6219C86.8405 80.6006 86.8591 80.5794 86.8778 80.5595C87.0772 80.3376 87.2473 80.0893 87.3829 79.8183C87.3843 79.8143 87.3882 79.8103 87.3896 79.8064C95.1132 64.1351 83.3749 55.7902 74.5372 49.7085C77.1069 49.3339 79.7324 49.1466 82.3925 49.1466C104.515 49.1466 122.512 62.2332 122.522 78.3201C122.522 78.3241 122.522 78.3281 122.522 78.3334C122.522 80.1756 124.016 81.6698 125.862 81.6698H147.557C147.557 81.6698 147.568 81.6698 147.573 81.6698C147.588 81.6698 147.601 81.6671 147.615 81.6671C147.739 81.6658 147.861 81.6565 147.982 81.6419C148.022 81.6366 148.063 81.63 148.103 81.6233C148.21 81.6061 148.315 81.5848 148.417 81.5582C148.448 81.5503 148.48 81.5436 148.51 81.5343C148.643 81.4958 148.772 81.4507 148.897 81.3962C148.916 81.3882 148.934 81.3776 148.954 81.3683C149.058 81.3205 149.159 81.2687 149.257 81.2116C149.294 81.189 149.332 81.1678 149.369 81.1439C149.459 81.0867 149.546 81.0243 149.629 80.9592C149.665 80.9313 149.701 80.9034 149.737 80.8729C149.822 80.8012 149.902 80.7241 149.979 80.6444C150.016 80.6059 150.051 80.5674 150.085 80.5275C150.152 80.4518 150.214 80.3722 150.274 80.2912C150.295 80.2619 150.318 80.2354 150.338 80.2062C150.415 80.0933 150.483 79.975 150.545 79.8528C150.553 79.8369 150.564 79.8236 150.572 79.8077C158.294 64.1365 146.557 55.7915 137.721 49.7098C140.291 49.3352 142.916 49.1466 145.576 49.1466C167.704 49.1466 185.706 62.2399 185.706 78.3334C185.706 80.1756 187.2 81.6698 189.045 81.6698H210.741C210.741 81.6698 210.751 81.6698 210.757 81.6698C210.77 81.6698 210.783 81.6671 210.797 81.6671C210.923 81.6658 211.046 81.6565 211.17 81.6419C211.209 81.6366 211.246 81.63 211.284 81.6247C211.395 81.6074 211.502 81.5848 211.609 81.5569C211.637 81.5503 211.663 81.5436 211.691 81.5356C211.827 81.4958 211.958 81.4507 212.087 81.3949C212.099 81.3896 212.11 81.3829 212.122 81.3776C212.235 81.3271 212.344 81.27 212.45 81.2076C212.482 81.189 212.514 81.1691 212.546 81.1505C212.647 81.0868 212.745 81.0177 212.838 80.9433C212.854 80.9313 212.87 80.9207 212.886 80.9074C212.987 80.8237 213.082 80.7321 213.172 80.6378C213.203 80.6059 213.231 80.5741 213.26 80.5408C213.337 80.4532 213.411 80.3615 213.479 80.2659C213.491 80.2486 213.506 80.2327 213.518 80.2154C213.599 80.0959 213.671 79.971 213.737 79.8409C213.742 79.8289 213.75 79.8196 213.756 79.8077C221.478 64.1365 209.741 55.7915 200.903 49.7098C203.473 49.3352 206.099 49.1466 208.759 49.1466C230.886 49.1466 248.888 62.2399 248.888 78.3334C248.888 80.1756 250.383 81.6698 252.228 81.6698H273.923C273.923 81.6698 273.934 81.6698 273.939 81.6698C273.951 81.6698 273.963 81.6671 273.976 81.6671C274.104 81.6671 274.229 81.6565 274.354 81.6406C274.391 81.6353 274.428 81.63 274.464 81.6233C274.577 81.6061 274.686 81.5821 274.795 81.5542C274.82 81.5476 274.846 81.5423 274.871 81.5343C275.008 81.4945 275.142 81.448 275.272 81.3909C275.279 81.3882 275.286 81.3842 275.292 81.3816C275.412 81.3285 275.526 81.2687 275.638 81.2023C275.666 81.185 275.694 81.1691 275.722 81.1518C275.831 81.0827 275.937 81.0097 276.037 80.9287C276.045 80.922 276.054 80.9167 276.063 80.9088C276.168 80.8224 276.267 80.7281 276.36 80.6285C276.385 80.602 276.41 80.5727 276.436 80.5448C276.521 80.4492 276.602 80.3496 276.675 80.2447C276.682 80.2354 276.69 80.2261 276.696 80.2168C276.781 80.0933 276.856 79.9631 276.924 79.8289C276.928 79.821 276.933 79.813 276.938 79.8051C284.662 64.1338 272.923 55.7889 264.086 49.7071C266.655 49.3326 269.281 49.144 271.941 49.144C294.059 49.144 312.055 62.2266 312.069 78.3108C312.069 78.3175 312.069 78.3241 312.069 78.3294C312.069 80.1716 313.564 81.6658 315.409 81.6658H326.808C328.652 81.6658 330.148 80.1729 330.148 78.3294C330.148 76.4859 328.653 74.993 326.808 74.993L326.796 75.009Z" fill="#212E52"/>
<path d="M326.797 117.501H318.538C317.533 109.011 312.699 101.179 304.668 95.1704C295.883 88.5986 284.258 84.978 271.932 84.978C266.139 84.978 260.483 85.7762 255.121 87.3514C253.927 87.702 253.027 88.6876 252.786 89.9068C252.546 91.1261 253.004 92.3786 253.975 93.1556C255.839 94.6471 257.924 96.0816 259.942 97.4682C269.394 103.968 275.194 108.565 271.757 117.5H255.359C254.354 109.01 249.519 101.178 241.488 95.1691C232.703 88.5973 221.077 84.9766 208.751 84.9766C202.957 84.9766 197.302 85.7749 191.941 87.3501C190.747 87.7008 189.847 88.6862 189.607 89.9055C189.366 91.1248 189.825 92.3773 190.795 93.1543C192.659 94.6458 194.745 96.0802 196.763 97.4668C206.214 103.967 212.014 108.564 208.577 117.498H192.179C191.174 109.009 186.339 101.176 178.308 95.1678C169.524 88.5959 157.897 84.9753 145.571 84.9753C139.778 84.9753 134.122 85.7736 128.76 87.3488C127.566 87.6994 126.666 88.6849 126.425 89.9042C126.185 91.1234 126.643 92.3759 127.614 93.1529C129.478 94.6445 131.563 96.0789 133.581 97.4655C143.033 103.966 148.833 108.562 145.396 117.497H128.998C127.993 109.007 123.158 101.175 115.127 95.1664C106.343 88.5946 94.7159 84.974 82.39 84.974C76.5966 84.974 70.9414 85.7722 65.5787 87.3474C64.3849 87.6981 63.4849 88.6836 63.2443 89.9029C63.0037 91.1221 63.4624 92.3746 64.4328 93.1516C66.2966 94.6431 68.3824 96.0776 70.4004 97.4642C79.8522 103.964 85.6522 108.561 82.2145 117.496H65.8167C64.8117 109.006 59.9767 101.174 51.946 95.1651C43.1615 88.5933 31.5348 84.9727 19.2089 84.9727C13.4154 84.9727 7.76029 85.7709 2.39893 87.3461C1.20515 87.6967 0.305169 88.6823 0.0645527 89.9015C-0.176064 91.1208 0.282566 92.3733 1.25301 93.1502C3.11679 94.6418 5.20258 96.0762 7.22057 97.4629C16.6724 103.963 22.4725 108.56 19.0347 117.494H7.6473C5.80346 117.494 4.30791 118.987 4.30791 120.831C4.30791 122.674 5.80213 124.167 7.6473 124.167H21.1936C21.1936 124.167 21.2042 124.167 21.2096 124.167C21.2215 124.167 21.2335 124.165 21.2454 124.165C21.3744 124.165 21.4994 124.154 21.6243 124.138C21.6602 124.134 21.6974 124.127 21.7333 124.121C21.8463 124.104 21.958 124.08 22.0683 124.05C22.0923 124.044 22.1162 124.038 22.1401 124.032C22.2784 123.992 22.414 123.944 22.5442 123.888C22.5482 123.887 22.5536 123.884 22.5575 123.882C22.6798 123.827 22.7982 123.766 22.9125 123.698C22.9391 123.682 22.9643 123.667 22.9909 123.651C23.1039 123.579 23.2129 123.503 23.3166 123.42C23.3219 123.416 23.3272 123.412 23.3326 123.408C23.4389 123.32 23.5386 123.224 23.6343 123.123C23.6583 123.098 23.6809 123.073 23.7035 123.046C23.7925 122.947 23.8763 122.843 23.9534 122.733C23.9574 122.728 23.9614 122.722 23.9653 122.716C24.0518 122.591 24.1275 122.458 24.1967 122.321C24.2006 122.314 24.2046 122.308 24.2086 122.301C31.9323 106.63 20.1939 98.285 11.3562 92.2033C13.9259 91.8287 16.5501 91.6415 19.2115 91.6415C41.327 91.6415 59.3213 104.72 59.34 120.802C59.34 120.811 59.34 120.819 59.34 120.827C59.34 122.669 60.8342 124.163 62.6794 124.163H84.376C84.376 124.163 84.3867 124.163 84.392 124.163C84.404 124.163 84.4146 124.161 84.4252 124.161C84.5555 124.161 84.6818 124.15 84.8081 124.134C84.8427 124.13 84.8772 124.123 84.9131 124.118C85.0288 124.1 85.1431 124.077 85.2548 124.046C85.276 124.041 85.2986 124.036 85.3199 124.029C85.5964 123.949 85.8569 123.835 86.0989 123.69C86.1215 123.677 86.1441 123.664 86.1667 123.649C86.4073 123.498 86.6267 123.319 86.8221 123.113C86.842 123.091 86.8606 123.07 86.8792 123.05C87.0787 122.828 87.2488 122.58 87.3844 122.309C87.3857 122.305 87.3897 122.301 87.391 122.297C95.1147 106.626 83.3764 98.281 74.5387 92.1993C77.1084 91.8248 79.7326 91.6375 82.394 91.6375C104.516 91.6375 122.513 104.724 122.524 120.811C122.524 120.815 122.524 120.819 122.524 120.824C122.524 122.666 124.018 124.161 125.863 124.161H147.558C147.558 124.161 147.569 124.161 147.574 124.161C147.589 124.161 147.602 124.158 147.617 124.158C147.741 124.157 147.863 124.147 147.984 124.133C148.024 124.127 148.065 124.121 148.105 124.114C148.211 124.097 148.316 124.076 148.419 124.049C148.449 124.041 148.481 124.034 148.512 124.025C148.645 123.987 148.774 123.941 148.898 123.887C148.917 123.879 148.936 123.868 148.956 123.859C149.059 123.811 149.16 123.76 149.259 123.702C149.296 123.68 149.333 123.659 149.37 123.635C149.461 123.578 149.547 123.516 149.631 123.45C149.667 123.422 149.703 123.394 149.739 123.364C149.824 123.292 149.903 123.215 149.981 123.135C150.018 123.097 150.052 123.058 150.087 123.018C150.153 122.943 150.216 122.863 150.276 122.782C150.297 122.753 150.32 122.726 150.34 122.697C150.417 122.584 150.484 122.466 150.547 122.344C150.555 122.328 150.566 122.314 150.573 122.299C158.296 106.627 146.559 98.2823 137.722 92.2006C140.292 91.8274 142.916 91.6388 145.578 91.6388C167.705 91.6388 185.707 104.732 185.707 120.826C185.707 122.668 187.202 124.162 189.047 124.162H210.742C210.742 124.162 210.753 124.162 210.758 124.162C210.771 124.162 210.785 124.159 210.798 124.159C210.924 124.158 211.048 124.149 211.172 124.134C211.21 124.129 211.247 124.122 211.286 124.117C211.396 124.1 211.504 124.077 211.61 124.049C211.638 124.042 211.665 124.036 211.693 124.028C211.828 123.988 211.96 123.943 212.089 123.887C212.101 123.882 212.112 123.875 212.123 123.87C212.236 123.819 212.345 123.762 212.452 123.7C212.484 123.681 212.516 123.661 212.548 123.643C212.649 123.579 212.747 123.51 212.84 123.435C212.856 123.423 212.872 123.413 212.888 123.4C212.989 123.316 213.083 123.224 213.174 123.13C213.204 123.098 213.232 123.066 213.261 123.033C213.339 122.945 213.413 122.854 213.481 122.758C213.493 122.741 213.507 122.725 213.519 122.708C213.6 122.588 213.672 122.463 213.739 122.333C213.744 122.321 213.752 122.312 213.757 122.3C221.48 106.629 209.743 98.2837 200.905 92.2019C203.475 91.8287 206.099 91.6401 208.76 91.6401C230.888 91.6401 248.89 104.733 248.89 120.827C248.89 122.669 250.384 124.163 252.229 124.163H273.925C273.925 124.163 273.935 124.163 273.941 124.163C273.953 124.163 273.965 124.161 273.978 124.161C274.105 124.161 274.23 124.15 274.355 124.134C274.393 124.129 274.43 124.123 274.466 124.117C274.579 124.1 274.688 124.076 274.797 124.048C274.822 124.041 274.847 124.036 274.873 124.028C275.009 123.988 275.144 123.941 275.274 123.884C275.281 123.882 275.287 123.878 275.294 123.875C275.414 123.822 275.528 123.762 275.64 123.696C275.667 123.679 275.695 123.663 275.723 123.645C275.832 123.576 275.939 123.503 276.038 123.422C276.046 123.416 276.056 123.41 276.065 123.402C276.17 123.316 276.268 123.222 276.361 123.122C276.387 123.095 276.412 123.066 276.437 123.038C276.522 122.943 276.603 122.843 276.676 122.738C276.683 122.729 276.691 122.72 276.698 122.71C276.783 122.587 276.857 122.457 276.925 122.322C276.929 122.314 276.934 122.307 276.94 122.299C284.663 106.627 272.925 98.2823 264.087 92.2006C266.657 91.8261 269.283 91.6375 271.943 91.6375C294.061 91.6375 312.056 104.72 312.071 120.804C312.071 120.811 312.071 120.818 312.071 120.823C312.071 122.665 313.565 124.159 315.41 124.159H326.81C328.654 124.159 330.149 122.666 330.149 120.823C330.149 118.979 328.655 117.487 326.81 117.487L326.797 117.501Z" fill="#212E52"/>
<path d="M326.796 159.993H318.538C317.533 151.504 312.698 143.671 304.668 137.663C295.883 131.091 284.258 127.47 271.932 127.47C266.139 127.47 260.483 128.268 255.121 129.844C253.927 130.194 253.027 131.18 252.786 132.399C252.546 133.618 253.004 134.871 253.975 135.648C255.839 137.139 257.924 138.574 259.942 139.96C269.394 146.461 275.194 151.057 271.756 159.992H255.359C254.354 151.502 249.519 143.67 241.488 137.661C232.703 131.089 221.077 127.469 208.751 127.469C202.957 127.469 197.302 128.267 191.941 129.842C190.747 130.193 189.847 131.178 189.607 132.398C189.366 133.617 189.825 134.869 190.795 135.646C192.659 137.138 194.745 138.572 196.763 139.959C206.214 146.459 212.013 151.056 208.577 159.991H192.179C191.174 151.501 186.339 143.669 178.308 137.66C169.524 131.088 157.897 127.468 145.571 127.468C139.778 127.468 134.122 128.266 128.76 129.841C127.566 130.192 126.666 131.177 126.425 132.396C126.185 133.616 126.643 134.868 127.614 135.645C129.478 137.137 131.563 138.571 133.581 139.958C143.033 146.458 148.832 151.055 145.396 159.989H128.998C127.993 151.5 123.158 143.667 115.127 137.659C106.343 131.087 94.7159 127.466 82.39 127.466C76.5965 127.466 70.9414 128.264 65.5787 129.84C64.3849 130.19 63.4849 131.176 63.2443 132.395C63.0037 133.614 63.4623 134.867 64.4328 135.644C66.2966 137.135 68.3824 138.57 70.4003 139.956C79.8522 146.457 85.6522 151.053 82.2145 159.988H65.8167C64.8117 151.498 59.9767 143.666 51.946 137.657C43.1615 131.085 31.5348 127.465 19.2089 127.465C13.4154 127.465 7.76029 128.263 2.39893 129.838C1.20515 130.189 0.305169 131.174 0.0645527 132.394C-0.176064 133.613 0.282566 134.865 1.25301 135.642C3.11679 137.134 5.20258 138.568 7.22057 139.955C16.6724 146.455 22.4725 151.052 19.0347 159.987H7.64597C5.80213 159.987 4.30658 161.48 4.30658 163.323C4.30658 165.167 5.8008 166.659 7.64597 166.659H21.1923C21.1923 166.659 21.2029 166.659 21.2082 166.659C21.2202 166.659 21.2322 166.657 21.2441 166.657C21.3731 166.657 21.498 166.646 21.623 166.63C21.6589 166.626 21.6961 166.62 21.732 166.614C21.845 166.597 21.9567 166.573 22.067 166.544C22.0909 166.537 22.1149 166.532 22.1388 166.525C22.277 166.486 22.4126 166.438 22.5429 166.382C22.5469 166.381 22.5509 166.378 22.5549 166.377C22.6785 166.322 22.7955 166.26 22.9111 166.192C22.9364 166.176 22.963 166.161 22.9883 166.145C23.1026 166.074 23.2129 165.997 23.3179 165.913C23.3219 165.909 23.3272 165.906 23.3312 165.904C23.4389 165.816 23.5386 165.719 23.6343 165.618C23.6569 165.594 23.6795 165.569 23.7021 165.544C23.7925 165.443 23.8789 165.337 23.956 165.225C23.9587 165.221 23.9614 165.218 23.964 165.214C24.0518 165.088 24.1275 164.954 24.1967 164.816C24.1993 164.809 24.2046 164.804 24.2073 164.797C31.931 149.126 20.1926 140.781 11.3549 134.699C13.9246 134.325 16.5488 134.138 19.2102 134.138C41.3256 134.138 59.32 147.216 59.3386 163.298C59.3386 163.307 59.3386 163.315 59.3386 163.323C59.3386 165.165 60.8328 166.659 62.678 166.659H84.3747C84.3747 166.659 84.3853 166.659 84.3907 166.659C84.4026 166.659 84.4133 166.657 84.4239 166.657C84.5542 166.657 84.6805 166.646 84.8067 166.63C84.8413 166.626 84.8759 166.62 84.9118 166.614C85.0274 166.596 85.1417 166.573 85.2534 166.543C85.2747 166.537 85.2973 166.532 85.3186 166.525C85.5951 166.446 85.8569 166.331 86.0989 166.187C86.1215 166.173 86.1428 166.16 86.1654 166.147C86.4073 165.995 86.6267 165.815 86.8221 165.609C86.8407 165.589 86.8593 165.569 86.8766 165.549C87.0773 165.326 87.2488 165.076 87.3831 164.805C87.3844 164.801 87.3871 164.799 87.3884 164.796C95.112 149.125 83.3737 140.78 74.536 134.698C77.1057 134.324 79.7299 134.136 82.3913 134.136C104.513 134.136 122.51 147.223 122.521 163.31C122.521 163.314 122.521 163.318 122.521 163.323C122.521 165.165 124.015 166.659 125.86 166.659H147.556C147.556 166.659 147.566 166.659 147.572 166.659C147.586 166.659 147.6 166.657 147.614 166.657C147.738 166.656 147.86 166.646 147.981 166.632C148.021 166.626 148.062 166.62 148.102 166.613C148.209 166.596 148.314 166.575 148.416 166.548C148.446 166.54 148.478 166.533 148.509 166.524C148.642 166.486 148.771 166.44 148.896 166.386C148.914 166.378 148.933 166.367 148.952 166.359C149.057 166.312 149.158 166.258 149.256 166.201C149.293 166.18 149.331 166.157 149.366 166.134C149.457 166.075 149.546 166.013 149.63 165.948C149.664 165.921 149.697 165.894 149.731 165.867C149.817 165.794 149.899 165.715 149.978 165.634C150.014 165.597 150.047 165.558 150.082 165.52C150.149 165.442 150.215 165.361 150.276 165.277C150.296 165.25 150.317 165.225 150.336 165.197C150.413 165.083 150.482 164.963 150.544 164.84C150.552 164.825 150.562 164.812 150.569 164.796C158.292 149.125 146.555 140.78 137.718 134.698C140.288 134.325 142.912 134.136 145.574 134.136C167.701 134.136 185.703 147.23 185.703 163.323C185.703 165.165 187.198 166.659 189.043 166.659H210.738C210.738 166.659 210.749 166.659 210.754 166.659C210.768 166.659 210.781 166.657 210.794 166.657C210.92 166.656 211.044 166.646 211.168 166.632C211.206 166.626 211.243 166.62 211.282 166.614C211.392 166.597 211.5 166.575 211.606 166.547C211.634 166.54 211.661 166.533 211.689 166.525C211.824 166.486 211.957 166.44 212.085 166.385C212.097 166.379 212.107 166.374 212.118 166.369C212.232 166.318 212.341 166.26 212.448 166.197C212.48 166.179 212.51 166.16 212.542 166.14C212.645 166.075 212.744 166.006 212.839 165.93C212.853 165.92 212.868 165.909 212.881 165.898C212.984 165.813 213.079 165.722 213.171 165.626C213.2 165.596 213.228 165.564 213.256 165.532C213.336 165.442 213.41 165.349 213.481 165.25C213.491 165.234 213.503 165.221 213.515 165.205C213.598 165.086 213.669 164.958 213.736 164.828C213.741 164.817 213.748 164.808 213.753 164.797C221.476 149.126 209.739 140.781 200.901 134.699C203.471 134.326 206.095 134.138 208.756 134.138C230.884 134.138 248.886 147.231 248.886 163.324C248.886 165.167 250.38 166.661 252.225 166.661H273.921C273.921 166.661 273.931 166.661 273.937 166.661C273.949 166.661 273.961 166.658 273.974 166.658C274.101 166.658 274.226 166.648 274.351 166.632C274.389 166.626 274.426 166.621 274.462 166.614C274.575 166.597 274.684 166.573 274.793 166.545C274.818 166.539 274.843 166.533 274.868 166.525C275.007 166.486 275.14 166.439 275.27 166.382C275.277 166.379 275.283 166.375 275.29 166.373C275.41 166.319 275.525 166.258 275.637 166.192C275.665 166.176 275.693 166.159 275.719 166.142C275.83 166.072 275.936 165.998 276.037 165.916C276.045 165.909 276.053 165.905 276.06 165.898C276.166 165.812 276.264 165.716 276.359 165.617C276.384 165.59 276.408 165.564 276.432 165.536C276.518 165.439 276.601 165.337 276.676 165.229C276.682 165.221 276.688 165.214 276.694 165.206C276.779 165.082 276.855 164.951 276.922 164.816C276.926 164.808 276.932 164.801 276.936 164.793C284.659 149.122 272.921 140.777 264.083 134.697C266.653 134.322 269.279 134.134 271.939 134.134C294.057 134.134 312.052 147.216 312.067 163.301C312.067 163.307 312.067 163.314 312.067 163.319C312.067 165.161 313.561 166.656 315.406 166.656H326.806C328.65 166.656 330.145 165.163 330.145 163.319C330.145 161.476 328.651 159.983 326.806 159.983L326.796 159.993Z" fill="#212E52"/>
</svg>
