<svg width="331" height="183" viewBox="0 0 331 183" fill="none" xmlns="http://www.w3.org/2000/svg">
<path d="M23.6435 48.5426C28.3481 48.5426 32.9238 47.0803 36.8229 44.2831C45.2617 38.2306 47.2053 26.4417 41.1566 18.0037C38.7053 14.585 35.0695 12.3244 30.9179 11.6417C26.7662 10.9577 22.5959 11.9326 19.1768 14.3858C15.7523 16.8416 13.6798 20.8248 13.6346 25.0431C13.6134 26.9264 15.1262 28.4711 17.0113 28.491H17.0498C18.9176 28.491 20.4424 26.9888 20.4636 25.1174C20.4862 23.0322 21.47 21.1409 23.1596 19.9282C25.0965 18.5389 27.4588 17.9864 29.8091 18.3743C32.1594 18.7608 34.2187 20.0412 35.6065 21.9776C39.4657 27.3608 38.2254 34.8809 32.8414 38.7419C29.3983 41.2123 25.2002 42.1938 21.0207 41.5045C16.8411 40.8165 13.18 38.5414 10.7127 35.0987C4.06713 25.8293 6.20348 12.8783 15.4745 6.2294C17.006 5.131 17.3569 2.99921 16.2575 1.46914C15.1581 -0.0609246 13.0245 -0.41155 11.4931 0.686856C-0.832885 9.52723 -3.67246 26.7471 5.16255 39.0713C6.97316 41.5975 9.23441 43.6788 11.8134 45.246C11.7017 45.3085 11.5928 45.3761 11.4864 45.4519C-0.839538 54.2922 -3.67911 71.5121 5.1559 83.8363C6.96651 86.3625 9.22779 88.4438 11.8054 90.011C11.6938 90.0735 11.5847 90.1412 11.4784 90.2169C-0.847571 99.0586 -3.68706 116.277 5.14795 128.601C6.95855 131.128 9.21984 133.209 11.7975 134.776C11.6858 134.839 11.5768 134.906 11.4704 134.982C-0.855523 143.822 -3.69509 161.042 5.13992 173.366C8.67073 178.293 13.9098 181.547 19.8906 182.532C21.1376 182.738 22.3859 182.839 23.6249 182.839C28.3295 182.839 32.9052 181.377 36.8043 178.58C45.2431 172.527 47.188 160.738 41.1381 152.301C38.6867 148.883 35.0508 146.623 30.8992 145.939C26.7476 145.255 22.5774 146.23 19.1582 148.682C15.7337 151.138 13.6626 155.122 13.616 159.339C13.5948 161.223 15.1062 162.768 16.9926 162.789H17.0312C18.8989 162.789 20.4237 161.287 20.445 159.415C20.4676 157.33 21.4514 155.437 23.1424 154.225C25.0792 152.835 27.4402 152.285 29.7905 152.671C32.1408 153.058 34.2 154.338 35.5892 156.274C39.4484 161.656 38.2081 169.176 32.8241 173.037C29.381 175.507 25.1829 176.488 21.0034 175.8C16.8238 175.112 13.1627 172.836 10.6941 169.394C4.04855 160.124 6.18482 147.173 15.4559 140.524C16.5951 139.706 17.0804 138.318 16.8012 137.03C17.8089 137.343 18.8418 137.592 19.9013 137.767C21.1482 137.972 22.3965 138.074 23.6355 138.074C28.3402 138.074 32.9159 136.612 36.8149 133.816C45.2538 127.763 47.1973 115.974 41.1487 107.536C38.6973 104.118 35.0614 101.857 30.9098 101.174C26.7582 100.49 22.588 101.465 19.1688 103.918C15.7444 106.374 13.6732 110.357 13.6254 114.574C13.6041 116.458 15.1156 118.002 17.002 118.024H17.0405C18.9083 118.024 20.433 116.522 20.4543 114.65C20.4769 112.565 21.4606 110.674 23.1516 109.461C25.0885 108.072 27.4495 107.52 29.7998 107.907C32.1502 108.295 34.2094 109.574 35.5986 111.51C39.4577 116.892 38.2174 124.414 32.8335 128.275C29.3904 130.744 25.1922 131.725 21.0126 131.037C16.8331 130.349 13.1721 128.074 10.7034 124.631C4.05789 115.362 6.19415 102.411 15.4652 95.7621C16.6045 94.9453 17.0897 93.556 16.8105 92.2677C17.8169 92.5811 18.8511 92.8295 19.9106 93.0048C21.1576 93.2093 22.4045 93.3115 23.6448 93.3115C28.3482 93.3115 32.9252 91.8492 36.8242 89.0534C45.2631 83.0009 47.2067 71.212 41.158 62.7741C38.7066 59.3553 35.0708 57.096 30.9191 56.412C26.7675 55.7293 22.5973 56.703 19.1782 59.1561C15.7537 61.6119 13.6812 65.5951 13.636 69.8134C13.6147 71.6968 15.1275 73.2415 17.0126 73.2614H17.0511C18.9189 73.2614 20.4437 71.7592 20.4649 69.8878C20.4875 67.8025 21.4713 65.9112 23.1609 64.6986C25.0978 63.3093 27.4575 62.7568 29.8105 63.1446C32.1608 63.5311 34.22 64.8114 35.6078 66.7479C39.467 72.131 38.2267 79.6512 32.8428 83.5122C29.3997 85.9813 25.2028 86.9642 21.022 86.2749C16.8424 85.5869 13.1813 83.3117 10.7127 79.8691C4.06713 70.5997 6.20348 57.6485 15.4745 50.9997C16.6138 50.1815 17.099 48.7936 16.8198 47.5053C17.8261 47.8187 18.8604 48.0671 19.9199 48.2424C21.1669 48.4469 22.4151 48.5492 23.6541 48.5492L23.6435 48.5426Z" fill="#212E52"/>
<path d="M71.2176 48.5322C75.9223 48.5322 80.498 47.0698 84.397 44.2727C92.8359 38.2202 94.7807 26.4326 88.7307 17.9946C86.2794 14.5759 82.6436 12.3166 78.4919 11.6326C74.3403 10.9486 70.17 11.9235 66.7509 14.3753C63.3264 16.8311 61.2553 20.8157 61.2087 25.0327C61.1875 26.9161 62.7003 28.4607 64.5854 28.4806H64.6239C66.4917 28.4806 68.0165 26.9784 68.0377 25.107C68.0603 23.0218 69.0441 21.1305 70.7337 19.9179C72.6706 18.5286 75.0329 17.9787 77.3833 18.3639C79.7336 18.7517 81.7928 20.0307 83.182 21.9672C87.0412 27.3503 85.8008 34.8705 80.4169 38.7302C76.9738 41.2006 72.7769 42.1821 68.5961 41.4928C64.4165 40.8048 60.7555 38.5296 58.2881 35.087C51.6426 25.8176 53.7789 12.8665 63.0499 6.21766C64.5814 5.11925 64.9323 2.98754 63.8329 1.45748C62.7335 -0.07259 60.5999 -0.423297 59.0685 0.675109C46.7425 9.51549 43.903 26.7354 52.738 39.0596C54.5486 41.5858 56.8099 43.667 59.3889 45.2343C59.2772 45.2967 59.1681 45.3645 59.0618 45.4402C46.7359 54.2806 43.8964 71.5004 52.7314 83.8246C54.542 86.3508 56.8032 88.4321 59.3822 89.9994C59.2705 90.0618 59.1615 90.1295 59.0551 90.2052C46.7292 99.0456 43.8884 116.264 52.7247 128.59C54.5353 131.116 56.7966 133.198 59.3756 134.764C59.2639 134.827 59.1535 134.895 59.0485 134.97C46.7225 143.811 43.8831 161.03 52.7181 173.355C56.2489 178.28 61.4879 181.535 67.4674 182.52C68.7144 182.726 69.9627 182.827 71.2017 182.827C75.905 182.827 80.482 181.365 84.3811 178.569C92.8199 172.517 94.7635 160.728 88.7148 152.29C86.2635 148.871 82.6276 146.612 78.476 145.928C74.323 145.244 70.1541 146.219 66.735 148.672C63.3105 151.128 61.2393 155.111 61.1914 159.328C61.1702 161.211 62.6817 162.756 64.5681 162.777H64.6066C66.4744 162.777 67.9992 161.275 68.0205 159.403C68.0431 157.318 69.0268 155.427 70.7177 154.214C72.6546 152.825 75.0157 152.272 77.366 152.66C79.7163 153.047 81.7755 154.327 83.1633 156.264C87.0225 161.645 85.7822 169.167 80.3982 173.028C76.9551 175.497 72.7584 176.48 68.5775 175.791C64.3979 175.103 60.7368 172.827 58.2682 169.385C51.6227 160.115 53.759 147.164 63.03 140.515C64.1693 139.697 64.6545 138.309 64.3753 137.021C65.3817 137.334 66.4159 137.583 67.4755 137.758C68.7224 137.963 69.9706 138.065 71.2096 138.065C75.9129 138.065 80.49 136.603 84.389 133.805C92.8279 127.753 94.7714 115.964 88.7228 107.526C86.2714 104.107 82.6356 101.848 78.484 101.164C74.3324 100.48 70.1621 101.455 66.7429 103.908C63.3185 106.364 61.2473 110.347 61.2008 114.564C61.1795 116.447 62.691 117.992 64.5774 118.013H64.616C66.4837 118.013 68.0085 116.511 68.0298 114.64C68.0524 112.555 69.0361 110.663 70.7271 109.451C72.664 108.061 75.025 107.509 77.3766 107.897C79.727 108.283 81.7861 109.563 83.174 111.5C87.0331 116.882 85.7929 124.403 80.4089 128.264C76.9645 130.735 72.7663 131.715 68.5881 131.027C64.4086 130.339 60.7475 128.064 58.2788 124.621C51.6333 115.352 53.7696 102.401 63.0407 95.7517C64.1799 94.9336 64.6651 93.5456 64.3859 92.2572C65.3923 92.5707 66.4266 92.819 67.4861 92.9944C68.733 93.1989 69.9813 93.3012 71.2202 93.3012C75.9249 93.3012 80.5006 91.8389 84.3996 89.0417C92.8385 82.9892 94.7821 71.2002 88.7334 62.7636C86.282 59.3449 82.6462 57.0844 78.4932 56.4017C74.3416 55.7177 70.1714 56.6925 66.7523 59.1444C63.3278 61.6002 61.2566 65.5847 61.2101 69.8017C61.1888 71.685 62.7016 73.2297 64.5867 73.2496H64.6252C66.493 73.2496 68.0178 71.7475 68.039 69.8761C68.0616 67.7908 69.0454 65.8995 70.735 64.6868C72.6719 63.2976 75.0316 62.7464 77.3833 63.1329C79.7336 63.5207 81.7928 64.7998 83.182 66.7363C87.0412 72.118 85.7995 79.6382 80.4169 83.4992C76.9738 85.9696 72.7756 86.9512 68.5961 86.2618C64.4165 85.5738 60.7555 83.2987 58.2881 79.856C51.6439 70.5866 53.7789 57.6355 63.0499 50.9866C64.1892 50.1685 64.6744 48.7806 64.3953 47.4922C65.4016 47.8057 66.4358 48.054 67.4953 48.2293C68.7423 48.4339 69.9906 48.5362 71.2296 48.5362L71.2176 48.5322Z" fill="#212E52"/>
<path d="M118.794 48.5295C123.497 48.5295 128.074 47.0672 131.973 44.2713C140.412 38.2188 142.355 26.4299 136.307 17.9919C133.855 14.5732 130.219 12.314 126.067 11.63C121.915 10.9459 117.745 11.9208 114.326 14.374C110.901 16.8298 108.829 20.813 108.783 25.0313C108.762 26.9147 110.275 28.4594 112.16 28.4793H112.199C114.066 28.4793 115.591 26.9771 115.611 25.1057C115.634 23.0204 116.617 21.1291 118.308 19.9165C120.245 18.5272 122.606 17.9761 124.956 18.3626C127.307 18.7504 129.366 20.0294 130.755 21.9658C134.614 27.349 133.374 34.8691 127.99 38.7302C124.547 41.1993 120.349 42.1808 116.169 41.4928C111.99 40.8048 108.329 38.5296 105.86 35.087C99.2145 25.8176 101.351 12.8665 110.622 6.2176C112.153 5.1192 112.504 2.98749 111.404 1.45742C110.304 -0.0726433 108.171 -0.423269 106.639 0.675137C94.3131 9.51684 91.4736 26.7353 100.309 39.0595C102.119 41.5857 104.38 43.6671 106.958 45.2343C106.846 45.2967 106.737 45.3644 106.631 45.4401C94.3052 54.2805 91.4656 71.5004 100.301 83.8246C102.111 86.3508 104.372 88.4321 106.95 89.9993C106.838 90.0617 106.73 90.1295 106.623 90.2052C94.2972 99.0456 91.4576 116.265 100.293 128.59C102.103 131.115 104.365 133.197 106.943 134.764C106.832 134.827 106.723 134.895 106.617 134.97C94.2906 143.811 91.4497 161.03 100.286 173.355C103.817 178.28 109.055 181.535 115.035 182.519C116.282 182.725 117.531 182.826 118.77 182.826C123.473 182.826 128.05 181.364 131.949 178.566C140.388 172.514 142.331 160.725 136.283 152.287C133.831 148.868 130.196 146.609 126.044 145.925C121.891 145.241 117.722 146.216 114.303 148.669C110.878 151.125 108.807 155.108 108.761 159.325C108.739 161.208 110.251 162.753 112.137 162.774H112.176C114.044 162.774 115.569 161.272 115.59 159.401C115.612 157.316 116.596 155.424 118.287 154.212C120.224 152.822 122.586 152.27 124.937 152.658C127.287 153.044 129.346 154.324 130.734 156.261C134.593 161.643 133.353 169.164 127.969 173.025C124.526 175.496 120.328 176.477 116.147 175.788C111.967 175.1 108.306 172.825 105.839 169.382C99.1933 160.113 101.33 147.162 110.601 140.513C111.74 139.695 112.225 138.307 111.946 137.018C112.952 137.332 113.987 137.58 115.046 137.755C116.293 137.96 117.541 138.062 118.78 138.062C123.485 138.062 128.061 136.6 131.96 133.803C140.398 127.75 142.343 115.961 136.293 107.525C133.842 104.106 130.206 101.845 126.055 101.163C121.902 100.479 117.733 101.454 114.314 103.905C110.889 106.361 108.818 110.346 108.771 114.563C108.75 116.446 110.263 117.991 112.148 118.011H112.187C114.054 118.011 115.579 116.508 115.6 114.637C115.623 112.552 116.607 110.661 118.296 109.448C120.233 108.059 122.593 107.507 124.945 107.894C127.295 108.282 129.354 109.561 130.743 111.497C134.602 116.879 133.362 124.399 127.978 128.26C124.535 130.731 120.338 131.712 116.157 131.023C111.978 130.335 108.317 128.06 105.849 124.617C99.2039 115.348 101.34 102.397 110.611 95.7477C111.751 94.9295 112.236 93.5416 111.957 92.2533C112.963 92.5667 113.997 92.8151 115.057 92.9904C116.304 93.1963 117.552 93.2972 118.791 93.2972C123.495 93.2972 128.071 91.8349 131.97 89.0377C140.409 82.9852 142.354 71.1976 136.304 62.7597C133.853 59.3409 130.217 57.0803 126.064 56.3976C121.912 55.7136 117.742 56.6885 114.323 59.1403C110.898 61.5961 108.827 65.5807 108.781 69.7976C108.759 71.681 110.272 73.2257 112.157 73.2456H112.196C114.064 73.2456 115.588 71.7435 115.61 69.8721C115.632 67.7868 116.616 65.8955 118.306 64.6829C120.243 63.2936 122.604 62.7423 124.954 63.1288C127.304 63.5167 129.363 64.7957 130.753 66.7322C134.612 72.1153 133.371 79.6356 127.987 83.4952C124.544 85.9643 120.348 86.9471 116.167 86.2578C111.987 85.5698 108.326 83.2946 105.857 79.852C99.2132 70.5826 101.348 57.6316 110.619 50.9827C111.759 50.1659 112.244 48.7765 111.965 47.4882C112.971 47.8016 114.005 48.05 115.065 48.2253C116.312 48.4299 117.559 48.5321 118.799 48.5321L118.794 48.5295Z" fill="#212E52"/>
<path d="M166.369 48.5269C171.072 48.5269 175.649 47.0647 179.548 44.2675C187.986 38.215 189.931 26.426 183.882 17.9881C181.431 14.5694 177.795 12.3101 173.643 11.6261C169.492 10.942 165.322 11.917 161.902 14.3701C158.478 16.8259 156.405 20.8091 156.36 25.0274C156.339 26.9108 157.852 28.4555 159.737 28.4754H159.775C161.643 28.4754 163.168 26.9732 163.189 25.1018C163.212 23.0165 164.196 21.1252 165.885 19.9126C167.822 18.5233 170.184 17.9708 172.535 18.3586C174.885 18.7451 176.944 20.0255 178.332 21.962C182.191 27.3451 180.951 34.8653 175.567 38.7263C172.124 41.1968 167.926 42.1769 163.746 41.4889C159.567 40.8009 155.906 38.5257 153.437 35.0831C146.791 25.8137 148.928 12.8627 158.199 6.21378C159.73 5.11537 160.081 2.98358 158.982 1.45352C157.882 -0.0765496 155.749 -0.427175 154.217 0.671231C141.891 9.51161 139.052 26.7315 147.887 39.0557C149.697 41.5819 151.959 43.6645 154.538 45.2304C154.426 45.2928 154.317 45.3606 154.211 45.4363C141.885 54.2767 139.045 71.4965 147.88 83.8207C149.691 86.3469 151.952 88.4282 154.53 89.9954C154.418 90.0578 154.309 90.1256 154.203 90.2013C141.877 99.0417 139.037 116.262 147.872 128.586C149.683 131.112 151.944 133.195 154.522 134.76C154.41 134.823 154.301 134.891 154.195 134.966C141.869 143.807 139.028 161.027 147.864 173.351C151.395 178.276 156.633 181.531 162.614 182.515C163.861 182.721 165.109 182.822 166.348 182.822C171.051 182.822 175.628 181.36 179.527 178.563C187.966 172.51 189.911 160.721 183.861 152.284C181.41 148.866 177.774 146.605 173.622 145.923C169.469 145.239 165.3 146.213 161.881 148.665C158.457 151.121 156.385 155.106 156.339 159.321C156.318 161.205 157.829 162.749 159.716 162.771H159.754C161.622 162.771 163.147 161.268 163.168 159.397C163.19 157.312 164.174 155.42 165.865 154.208C167.802 152.818 170.164 152.267 172.513 152.654C174.864 153.042 176.923 154.321 178.312 156.257C182.171 161.639 180.931 169.159 175.547 173.02C172.104 175.49 167.907 176.472 163.725 175.783C159.545 175.095 155.884 172.82 153.417 169.377C146.771 160.107 148.908 147.156 158.179 140.507C159.318 139.691 159.803 138.301 159.524 137.013C160.53 137.327 161.565 137.575 162.624 137.75C163.871 137.956 165.119 138.057 166.358 138.057C171.063 138.057 175.639 136.595 179.538 133.799C187.977 127.746 189.92 115.957 183.872 107.519C181.42 104.101 177.784 101.84 173.633 101.157C169.48 100.473 165.311 101.448 161.892 103.9C158.467 106.356 156.396 110.341 156.35 114.558C156.328 116.441 157.841 117.986 159.726 118.006C161.591 118.031 163.157 116.515 163.177 114.632C163.2 112.547 164.184 110.655 165.873 109.443C167.81 108.053 170.17 107.502 172.523 107.889C174.873 108.277 176.932 109.556 178.321 111.492C182.181 116.874 180.94 124.395 175.556 128.256C172.113 130.725 167.915 131.708 163.736 131.019C159.556 130.331 155.895 128.056 153.426 124.613C146.781 115.344 148.917 102.393 158.188 95.7438C159.327 94.927 159.811 93.5377 159.533 92.2494C160.54 92.5628 161.574 92.8112 162.634 92.9865C163.88 93.1924 165.127 93.2933 166.368 93.2933C171.071 93.2933 175.648 91.831 179.547 89.0352C187.986 82.9827 189.929 71.1937 183.881 62.7558C181.429 59.337 177.794 57.0778 173.642 56.3938C169.489 55.7098 165.32 56.6847 161.901 59.1378C158.477 61.5936 156.404 65.5768 156.359 69.7951C156.338 71.6785 157.85 73.2232 159.735 73.2431H159.774C161.642 73.2431 163.167 71.7409 163.188 69.8695C163.21 67.7843 164.194 65.8929 165.884 64.6803C167.821 63.291 170.182 62.7372 172.533 63.1263C174.884 63.5128 176.943 64.7932 178.331 66.7297C182.19 72.1128 180.95 79.633 175.566 83.494C172.123 85.9631 167.926 86.9446 163.745 86.2566C159.565 85.5686 155.904 83.2934 153.436 79.8508C146.79 70.5814 148.926 57.6303 158.197 50.9815C159.337 50.1633 159.822 48.7753 159.543 47.4869C160.549 47.8004 161.583 48.0488 162.641 48.2242C163.888 48.4287 165.137 48.5309 166.376 48.5309L166.369 48.5269Z" fill="#212E52"/>
<path d="M213.945 48.5087C218.65 48.5087 223.226 47.0464 227.125 44.2493C235.564 38.1967 237.509 26.4091 231.459 17.9712C229.007 14.5524 225.371 12.2932 221.22 11.6092C217.067 10.9252 212.898 11.9001 209.479 14.3519C206.054 16.8077 203.982 20.7922 203.937 25.0092C203.915 26.8926 205.428 28.4373 207.313 28.4572H207.352C209.22 28.4572 210.744 26.955 210.766 25.0836C210.788 22.9984 211.772 21.107 213.463 19.8944C215.4 18.5051 217.762 17.9552 220.111 18.3404C222.461 18.7282 224.521 20.0073 225.91 21.9438C229.769 27.3269 228.529 34.847 223.145 38.7067C219.702 41.1771 215.504 42.1574 211.324 41.4694C207.144 40.7814 203.483 38.5062 201.016 35.0635C194.371 25.7942 196.507 12.8431 205.778 6.19425C207.309 5.09584 207.66 2.96405 206.561 1.43398C205.461 -0.0960808 203.328 -0.446707 201.796 0.6517C189.47 9.49208 186.631 26.712 195.466 39.0362C197.276 41.5611 199.538 43.6436 202.117 45.2109C202.005 45.2733 201.896 45.341 201.79 45.4167C189.464 54.2571 186.624 71.477 195.459 83.8012C197.27 86.326 199.531 88.4086 202.11 89.9759C201.998 90.0383 201.889 90.1061 201.783 90.1818C189.457 99.0222 186.618 116.242 195.453 128.566C197.263 131.092 199.524 133.174 202.102 134.741C201.99 134.803 201.881 134.871 201.775 134.947C189.449 143.788 186.61 161.007 195.445 173.331C198.975 178.256 204.215 181.512 210.194 182.497C211.441 182.702 212.689 182.804 213.928 182.804C218.632 182.804 223.209 181.341 227.108 178.546C235.546 172.493 237.49 160.704 231.441 152.266C228.99 148.848 225.354 146.587 221.201 145.904C217.05 145.22 212.879 146.195 209.46 148.648C206.036 151.104 203.965 155.087 203.918 159.304C203.897 161.188 205.408 162.732 207.295 162.754H207.333C209.201 162.754 210.726 161.251 210.747 159.38C210.77 157.295 211.753 155.403 213.444 154.191C215.381 152.802 217.741 152.249 220.093 152.637C222.443 153.025 224.502 154.304 225.891 156.24C229.75 161.622 228.51 169.143 223.126 173.004C219.683 175.474 215.486 176.455 211.305 175.767C207.126 175.079 203.465 172.804 200.996 169.361C194.351 160.092 196.487 147.141 205.758 140.492C206.897 139.675 207.381 138.286 207.103 136.998C208.11 137.311 209.144 137.559 210.203 137.735C211.45 137.941 212.697 138.041 213.938 138.041C218.641 138.041 223.218 136.579 227.117 133.783C235.556 127.731 237.499 115.942 231.451 107.504C228.999 104.085 225.363 101.825 221.212 101.142C217.06 100.458 212.89 101.433 209.471 103.886C206.046 106.342 203.974 110.325 203.929 114.543C203.907 116.427 205.42 117.971 207.305 117.991H207.344C209.212 117.991 210.736 116.489 210.756 114.618C210.779 112.532 211.763 110.641 213.452 109.428C215.389 108.039 217.75 107.487 220.102 107.874C222.452 108.261 224.511 109.541 225.899 111.478C229.758 116.86 228.518 124.381 223.134 128.242C219.691 130.711 215.493 131.694 211.313 131.005C207.134 130.317 203.473 128.042 201.004 124.599C194.359 115.33 196.495 102.378 205.766 95.7296C206.905 94.9114 207.39 93.5234 207.111 92.2351C208.118 92.5486 209.152 92.797 210.211 92.9723C211.458 93.1782 212.706 93.2791 213.945 93.2791C218.65 93.2791 223.226 91.8168 227.125 89.0196C235.562 82.9671 237.507 71.1781 231.459 62.7402C229.007 59.3215 225.371 57.0623 221.22 56.3783C217.067 55.6942 212.898 56.6691 209.479 59.1222C206.054 61.5781 203.982 65.5612 203.937 69.7796C203.915 71.6629 205.428 73.2076 207.313 73.2275H207.352C209.22 73.2275 210.744 71.7254 210.766 69.854C210.788 67.7687 211.772 65.8773 213.462 64.6647C215.399 63.2754 217.759 62.7216 220.111 63.1108C222.461 63.4973 224.521 64.7776 225.909 66.7141C229.768 72.0973 228.527 79.6174 223.143 83.4785C219.7 85.9489 215.502 86.929 211.323 86.241C207.143 85.553 203.482 83.2778 201.015 79.8352C194.37 70.5658 196.505 57.6148 205.777 50.9659C206.916 50.1477 207.401 48.7597 207.122 47.4714C208.128 47.7848 209.162 48.0333 210.222 48.2086C211.469 48.4131 212.717 48.5154 213.956 48.5154L213.945 48.5087Z" fill="#212E52"/>
<path d="M261.521 48.5074C266.224 48.5074 270.801 47.0451 274.7 44.2493C283.139 38.1967 285.083 26.4078 279.034 17.9699C276.583 14.5511 272.947 12.2919 268.795 11.6079C264.644 10.9239 260.473 11.8988 257.054 14.3506C253.63 16.8077 251.557 20.7909 251.512 25.0079C251.491 26.8913 253.004 28.436 254.889 28.4559H254.927C256.795 28.4559 258.32 26.9537 258.34 25.0822C258.362 22.997 259.346 21.1057 261.037 19.8931C262.974 18.5038 265.336 17.9539 267.685 18.3391C270.036 18.7269 272.095 20.006 273.484 21.9425C277.343 27.3243 276.103 34.8458 270.719 38.7068C267.276 41.1759 263.078 42.1587 258.898 41.4694C254.719 40.7814 251.057 38.5062 248.589 35.0635C241.943 25.7942 244.08 12.8431 253.351 6.19425C254.882 5.09584 255.233 2.96405 254.134 1.43398C253.033 -0.0960808 250.901 -0.446707 249.369 0.6517C237.043 9.49208 234.204 26.712 243.039 39.0362C244.849 41.5624 247.111 43.6436 249.688 45.2109C249.577 45.2733 249.468 45.3411 249.361 45.4168C237.035 54.2572 234.196 71.477 243.031 83.8012C244.841 86.326 247.103 88.4086 249.682 89.9759C249.57 90.0383 249.461 90.1061 249.355 90.1818C237.029 99.0222 234.189 116.242 243.024 128.566C244.835 131.091 247.096 133.174 249.675 134.741C249.563 134.803 249.454 134.871 249.348 134.947C237.022 143.787 234.181 161.006 243.017 173.331C246.548 178.257 251.787 181.512 257.767 182.497C259.014 182.702 260.262 182.804 261.501 182.804C266.204 182.804 270.781 181.342 274.68 178.544C283.119 172.492 285.063 160.703 279.014 152.265C276.563 148.846 272.927 146.586 268.775 145.903C264.622 145.219 260.454 146.194 257.034 148.647C253.61 151.103 251.539 155.086 251.492 159.303C251.471 161.186 252.982 162.731 254.869 162.752H254.907C256.775 162.752 258.3 161.25 258.321 159.379C258.344 157.293 259.328 155.402 261.019 154.19C262.955 152.8 265.318 152.248 267.667 152.635C270.017 153.022 272.076 154.302 273.464 156.239C277.323 161.621 276.083 169.142 270.699 173.003C267.256 175.474 263.058 176.454 258.878 175.766C254.699 175.078 251.038 172.803 248.569 169.36C241.923 160.091 244.06 147.14 253.331 140.491C254.47 139.672 254.955 138.285 254.676 136.996C255.682 137.31 256.717 137.558 257.776 137.733C259.023 137.939 260.271 138.04 261.51 138.04C266.215 138.04 270.791 136.578 274.69 133.781C283.129 127.728 285.072 115.939 279.024 107.503C276.572 104.084 272.936 101.823 268.785 101.141C264.632 100.457 260.463 101.431 257.044 103.883C253.619 106.339 251.548 110.324 251.502 114.541C251.48 116.424 252.993 117.969 254.878 117.989H254.917C256.784 117.989 258.309 116.486 258.33 114.615C258.353 112.53 259.337 110.638 261.026 109.426C262.963 108.037 265.323 107.485 267.676 107.872C270.026 108.26 272.086 109.539 273.475 111.475C277.334 116.857 276.094 124.377 270.71 128.238C267.267 130.709 263.068 131.689 258.889 131.001C254.709 130.313 251.048 128.038 248.581 124.595C241.935 115.326 244.072 102.375 253.343 95.7256C254.482 94.9075 254.967 93.5195 254.688 92.2311C255.694 92.5446 256.729 92.7929 257.788 92.9683C259.035 93.1741 260.283 93.2751 261.522 93.2751C266.227 93.2751 270.803 91.8128 274.702 89.0157C283.141 82.9631 285.085 71.1755 279.035 62.7375C276.584 59.3188 272.948 57.0583 268.795 56.3756C264.644 55.6916 260.473 56.6665 257.054 59.1183C253.63 61.5741 251.559 65.5586 251.512 69.7756C251.491 71.6589 253.004 73.2036 254.889 73.2236C256.768 73.2302 258.32 71.7334 258.34 69.85C258.362 67.7648 259.346 65.8734 261.036 64.6607C262.973 63.2715 265.332 62.7203 267.684 63.1068C270.034 63.4946 272.093 64.7737 273.483 66.7102C277.342 72.0933 276.102 79.6134 270.718 83.4731C267.274 85.9435 263.076 86.9237 258.897 86.2357C254.717 85.5478 251.056 83.2726 248.589 79.8299C241.945 70.5605 244.08 57.6094 253.351 50.9605C254.49 50.1437 254.975 48.7545 254.696 47.4661C255.702 47.7796 256.737 48.0279 257.796 48.2033C259.043 48.4091 260.29 48.5101 261.53 48.5101L261.521 48.5074Z" fill="#212E52"/>
<path d="M309.094 48.4944C313.798 48.4944 318.374 47.0321 322.273 44.2363C330.712 38.1837 332.655 26.3948 326.607 17.9568C324.155 14.5381 320.52 12.2775 316.368 11.5948C312.215 10.9108 308.046 11.8857 304.627 14.3389C301.203 16.7947 299.131 20.7779 299.085 24.9949C299.064 26.8783 300.575 28.4229 302.461 28.4442H302.5C304.368 28.4442 305.893 26.942 305.914 25.0706C305.936 22.9854 306.92 21.094 308.611 19.8813C310.548 18.4921 312.909 17.9396 315.261 18.3274C317.611 18.7139 319.67 19.9943 321.058 21.9308C324.917 27.3139 323.677 34.8341 318.293 38.6951C314.85 41.1642 310.652 42.147 306.472 41.4576C302.293 40.7696 298.632 38.4945 296.163 35.0518C289.517 25.7825 291.654 12.8314 300.925 6.18253C302.456 5.08412 302.807 2.95233 301.708 1.42227C300.608 -0.1078 298.475 -0.458425 296.943 0.639981C284.617 9.48036 281.778 26.7003 290.613 39.0245C292.423 41.5507 294.685 43.6319 297.262 45.1992C297.151 45.2616 297.042 45.3294 296.935 45.4051C284.609 54.2468 281.77 71.4653 290.605 83.7895C292.415 86.3157 294.677 88.3969 297.254 89.9642C297.143 90.0266 297.034 90.0944 296.927 90.1701C284.601 99.0104 281.762 116.23 290.597 128.555C292.407 131.081 294.669 133.163 297.248 134.729C297.136 134.792 297.027 134.859 296.921 134.935C284.595 143.775 281.755 160.995 290.59 173.32C294.121 178.244 299.359 181.5 305.34 182.484C306.586 182.688 307.835 182.791 309.074 182.791C313.778 182.791 318.354 181.328 322.253 178.531C330.692 172.479 332.637 160.69 326.587 152.253C324.136 148.834 320.5 146.574 316.348 145.891C312.195 145.207 308.026 146.182 304.607 148.634C301.183 151.09 299.111 155.074 299.065 159.29C299.044 161.173 300.555 162.718 302.442 162.739H302.48C304.348 162.739 305.873 161.237 305.894 159.366C305.916 157.28 306.9 155.389 308.591 154.176C310.528 152.787 312.886 152.236 315.241 152.622C317.591 153.01 319.65 154.289 321.039 156.226C324.899 161.608 323.658 169.128 318.274 172.989C314.831 175.459 310.633 176.439 306.454 175.751C302.274 175.063 298.613 172.788 296.146 169.346C289.5 160.076 291.636 147.125 300.907 140.476C302.047 139.658 302.532 138.27 302.253 136.982C303.259 137.295 304.293 137.544 305.353 137.719C306.6 137.923 307.848 138.026 309.087 138.026C313.792 138.026 318.367 136.563 322.266 133.766C330.705 127.714 332.65 115.926 326.6 107.488C324.149 104.069 320.513 101.809 316.361 101.126C312.208 100.442 308.039 101.417 304.62 103.869C301.196 106.325 299.125 110.309 299.078 114.526C299.057 116.41 300.57 117.954 302.455 117.974H302.493C304.361 117.974 305.886 116.472 305.906 114.601C305.928 112.515 306.912 110.624 308.602 109.411C310.539 108.022 312.898 107.471 315.25 107.857C317.6 108.245 319.659 109.524 321.049 111.461C324.908 116.844 323.668 124.364 318.284 128.224C314.841 130.693 310.642 131.676 306.463 130.986C302.283 130.298 298.622 128.023 296.154 124.581C289.508 115.311 291.644 102.36 300.915 95.7112C302.055 94.8944 302.54 93.5052 302.261 92.2168C303.267 92.5303 304.301 92.7786 305.361 92.9539C306.608 93.1585 307.855 93.2608 309.095 93.2608C313.798 93.2608 318.375 91.7984 322.274 89.0026C330.713 82.95 332.657 71.1612 326.608 62.7232C324.157 59.3045 320.521 57.0439 316.368 56.3612C312.216 55.6772 308.046 56.6521 304.627 59.1053C301.203 61.5611 299.13 65.5443 299.085 69.7626C299.064 71.6459 300.576 73.1906 302.461 73.2105C304.35 73.2252 305.893 71.7203 305.912 69.8369C305.935 67.7517 306.919 65.8604 308.61 64.6477C310.547 63.2584 312.908 62.7073 315.258 63.0938C317.608 63.4816 319.668 64.7607 321.057 66.6972C324.916 72.0803 323.676 79.6004 318.292 83.4614C314.849 85.9305 310.65 86.912 306.471 86.224C302.291 85.536 298.63 83.2609 296.162 79.8182C289.516 70.5488 291.652 57.5977 300.923 50.9488C302.063 50.1307 302.548 48.7427 302.269 47.4544C303.276 47.7679 304.311 48.0162 305.369 48.1915C306.616 48.3974 307.864 48.4984 309.103 48.4984L309.094 48.4944Z" fill="#212E52"/>
</svg>
