<svg width="331" height="161" viewBox="0 0 331 161" fill="none" xmlns="http://www.w3.org/2000/svg">
<path d="M306.358 1.24314C305.763 0.459516 304.837 0 303.854 0C302.872 0 301.944 0.459516 301.351 1.24314L280.723 28.4363L260.094 1.24314C259.5 0.459516 258.573 0 257.591 0C256.609 0 255.681 0.459516 255.088 1.24314L234.46 28.4363L213.831 1.24314C213.236 0.459516 212.31 0 211.327 0C210.345 0 209.417 0.459516 208.824 1.24314L188.196 28.4363L167.567 1.24314C166.973 0.459516 166.046 0 165.064 0C164.081 0 163.154 0.459516 162.561 1.24314L141.933 28.4363L121.304 1.24314C120.709 0.459516 119.783 0 118.8 0C117.818 0 116.89 0.459516 116.297 1.24314L95.6693 28.4363L75.0401 1.24314C74.4459 0.459516 73.5193 0 72.5368 0C71.5544 0 70.6265 0.459516 70.0337 1.24314L49.4058 28.4363L28.7766 1.24314C28.1823 0.459516 27.2558 0 26.2734 0C25.291 0 24.3631 0.459516 23.7702 1.24314L0.637739 31.7369C-0.409807 33.1182 -0.138624 35.0866 1.24392 36.1345C2.62647 37.1811 4.59794 36.9102 5.64548 35.5289L26.2734 8.33567L46.9026 35.5289C46.9145 35.5448 46.9291 35.5581 46.9411 35.574C46.9943 35.6417 47.0501 35.7081 47.11 35.7719C47.1379 35.8024 47.1671 35.8317 47.1964 35.8609C47.2456 35.91 47.2974 35.9579 47.3519 36.003C47.3905 36.0362 47.4277 36.0694 47.4675 36.1C47.4822 36.1106 47.4941 36.1239 47.5088 36.1345C47.546 36.1624 47.5846 36.1863 47.6218 36.2115C47.6643 36.2407 47.7055 36.2713 47.7494 36.2978C47.8172 36.3403 47.8863 36.3776 47.9568 36.4134C47.9847 36.4281 48.0126 36.4453 48.0418 36.4586C48.1455 36.5091 48.2505 36.5516 48.3569 36.5901C48.3689 36.5941 48.3822 36.598 48.3941 36.602C48.4885 36.6339 48.5842 36.6618 48.6813 36.6844C48.7092 36.691 48.7371 36.695 48.765 36.7016C48.8461 36.7189 48.9272 36.7335 49.0096 36.7428C49.0455 36.7468 49.0814 36.7508 49.116 36.7534C49.1904 36.7601 49.2662 36.7641 49.3407 36.7667C49.3633 36.7667 49.3859 36.7707 49.4085 36.7707C49.4217 36.7707 49.435 36.768 49.447 36.768C49.5906 36.7654 49.7328 36.7561 49.875 36.7335C49.903 36.7295 49.9296 36.7229 49.9561 36.7189C50.0891 36.695 50.2207 36.6644 50.3497 36.6232C50.3683 36.6179 50.3855 36.614 50.4041 36.6074C50.5464 36.5595 50.6847 36.4997 50.8189 36.432C50.8429 36.4201 50.8668 36.4081 50.8907 36.3948C51.0276 36.3218 51.1579 36.2394 51.2842 36.1451C51.2908 36.1411 51.2975 36.1372 51.3028 36.1332C51.3254 36.1159 51.3453 36.0973 51.3666 36.0787C51.4171 36.0389 51.4663 35.9977 51.5142 35.9552C51.5527 35.9206 51.5886 35.8835 51.6258 35.8476C51.6604 35.8131 51.6963 35.7785 51.7295 35.7413C51.7747 35.6922 51.8173 35.6404 51.8585 35.5886C51.8744 35.5687 51.893 35.5501 51.909 35.5289L72.5368 8.33567L93.1661 35.5289C93.178 35.5448 93.1927 35.5581 93.2047 35.574C93.2578 35.6417 93.3136 35.7081 93.3735 35.7719C93.4014 35.8024 93.4306 35.8317 93.4599 35.8609C93.5091 35.91 93.5609 35.9579 93.6154 36.003C93.654 36.0362 93.6912 36.0694 93.7311 36.1C93.7457 36.1106 93.7576 36.1239 93.7723 36.1345C93.8095 36.1624 93.8481 36.1849 93.8853 36.2115C93.9278 36.2407 93.969 36.2713 94.0129 36.2978C94.0807 36.3403 94.1498 36.3763 94.219 36.4134C94.2482 36.4281 94.2761 36.4453 94.3053 36.4599C94.409 36.509 94.5127 36.5529 94.6191 36.5914C94.6324 36.5967 94.6457 36.5994 94.6603 36.6034C94.7533 36.6353 94.8491 36.6632 94.9434 36.6857C94.9727 36.6924 95.0019 36.6977 95.0299 36.703C95.1096 36.7189 95.1907 36.7335 95.2718 36.7441C95.3077 36.7494 95.3449 36.7521 95.3822 36.7561C95.4553 36.7628 95.5297 36.7667 95.6028 36.768C95.6254 36.768 95.6493 36.772 95.6719 36.772C95.6852 36.772 95.6985 36.7694 95.7118 36.7694C95.8541 36.7667 95.9963 36.7574 96.1372 36.7362C96.1665 36.7322 96.1944 36.7256 96.2223 36.7203C96.3526 36.6964 96.4815 36.6658 96.6091 36.6259C96.6291 36.6193 96.649 36.6153 96.6676 36.6087C96.8085 36.5608 96.9455 36.5011 97.0797 36.4347C97.105 36.4227 97.1289 36.4095 97.1542 36.3962C97.2898 36.3231 97.4201 36.2408 97.545 36.1478C97.5517 36.1425 97.5583 36.1398 97.565 36.1345C97.5889 36.1172 97.6088 36.096 97.6314 36.0787C97.6806 36.0402 97.7285 36.0004 97.775 35.9579C97.8149 35.922 97.8508 35.8848 97.888 35.8476C97.9226 35.8131 97.9571 35.7799 97.9904 35.7427C98.0356 35.6922 98.0781 35.6404 98.1193 35.5886C98.1353 35.5687 98.1539 35.5501 98.1698 35.5289L118.798 8.33567L139.427 35.5289C139.439 35.5448 139.454 35.5581 139.465 35.574C139.519 35.6417 139.574 35.7081 139.634 35.7719C139.662 35.8024 139.691 35.8317 139.721 35.8609C139.77 35.91 139.822 35.9579 139.876 36.003C139.915 36.0362 139.952 36.0694 139.992 36.1C140.007 36.1106 140.018 36.1239 140.033 36.1345C140.07 36.1624 140.109 36.1863 140.147 36.2115C140.19 36.2407 140.231 36.2713 140.274 36.2978C140.342 36.3403 140.412 36.3776 140.482 36.4147C140.51 36.4294 140.537 36.4466 140.565 36.4599C140.669 36.5104 140.774 36.5529 140.88 36.5914C140.892 36.5954 140.904 36.598 140.916 36.602C141.012 36.6339 141.107 36.6618 141.204 36.6857C141.232 36.6924 141.26 36.6964 141.288 36.703C141.369 36.7203 141.452 36.7348 141.533 36.7441C141.569 36.7481 141.603 36.7521 141.639 36.7547C141.713 36.7614 141.789 36.7654 141.864 36.768C141.886 36.768 141.909 36.772 141.931 36.772C141.945 36.772 141.958 36.7694 141.97 36.7694C142.114 36.7667 142.256 36.7575 142.398 36.7349C142.425 36.7309 142.453 36.7243 142.479 36.7203C142.612 36.6964 142.744 36.6658 142.873 36.6246C142.89 36.6193 142.909 36.6153 142.927 36.6087C143.069 36.5608 143.208 36.5011 143.343 36.4334C143.367 36.4214 143.391 36.4094 143.414 36.3975C143.551 36.3244 143.682 36.2421 143.807 36.1478C143.814 36.1438 143.82 36.1399 143.826 36.1359C143.848 36.1186 143.867 36.1 143.89 36.0827C143.94 36.0429 143.991 36.0017 144.039 35.9579C144.077 35.9233 144.113 35.8875 144.149 35.8503C144.183 35.8144 144.219 35.7799 144.253 35.7427C144.298 35.6936 144.34 35.6418 144.381 35.59C144.397 35.5701 144.416 35.5514 144.432 35.5302L165.06 8.33697L185.689 35.5302C185.701 35.5461 185.716 35.5594 185.728 35.5753C185.781 35.643 185.837 35.7095 185.896 35.7733C185.924 35.8038 185.954 35.833 185.983 35.8622C186.032 35.9113 186.084 35.9592 186.138 36.0044C186.177 36.0376 186.214 36.0708 186.254 36.1013C186.269 36.112 186.281 36.1253 186.295 36.1359C186.333 36.1638 186.371 36.1863 186.408 36.2129C186.451 36.2421 186.492 36.2727 186.536 36.2992C186.604 36.3417 186.673 36.3776 186.742 36.4147C186.771 36.4294 186.799 36.4467 186.828 36.4613C186.932 36.5104 187.036 36.5542 187.142 36.5928C187.155 36.5981 187.169 36.6007 187.183 36.6047C187.276 36.6366 187.372 36.6645 187.467 36.687C187.496 36.6937 187.525 36.699 187.553 36.7043C187.633 36.7202 187.714 36.7349 187.795 36.7455C187.831 36.7508 187.868 36.7534 187.905 36.7574C187.978 36.764 188.053 36.7681 188.126 36.7694C188.148 36.7694 188.172 36.7734 188.195 36.7734C188.208 36.7734 188.222 36.7707 188.235 36.7707C188.377 36.768 188.519 36.7587 188.66 36.7375C188.689 36.7335 188.717 36.7269 188.745 36.7216C188.876 36.6977 189.005 36.6671 189.132 36.6273C189.152 36.6207 189.172 36.6167 189.191 36.61C189.332 36.5622 189.469 36.5024 189.603 36.436C189.628 36.424 189.652 36.4108 189.677 36.3975C189.813 36.3244 189.943 36.2421 190.068 36.1491C190.075 36.1438 190.081 36.1412 190.088 36.1359C190.112 36.1186 190.132 36.0973 190.154 36.08C190.204 36.0415 190.251 36.0017 190.298 35.9592C190.338 35.9233 190.374 35.8862 190.411 35.849C190.446 35.8145 190.48 35.7812 190.513 35.744C190.559 35.6935 190.601 35.6418 190.642 35.59C190.658 35.5701 190.677 35.5514 190.693 35.5302L211.321 8.33697L231.95 35.5302C231.962 35.5461 231.977 35.5594 231.988 35.5753C232.042 35.643 232.098 35.7095 232.157 35.7733C232.185 35.8038 232.215 35.833 232.244 35.8622C232.293 35.9113 232.345 35.9592 232.399 36.0044C232.438 36.0376 232.475 36.0708 232.515 36.1013C232.53 36.112 232.542 36.1253 232.556 36.1359C232.593 36.1638 232.632 36.1877 232.669 36.2129C232.712 36.2421 232.753 36.2727 232.797 36.2992C232.865 36.3417 232.934 36.3789 233.004 36.4147C233.032 36.4294 233.06 36.4466 233.089 36.4599C233.193 36.5104 233.298 36.5529 233.404 36.5914C233.416 36.5954 233.43 36.5994 233.443 36.6034C233.537 36.6353 233.633 36.6632 233.729 36.6857C233.757 36.6924 233.786 36.6964 233.814 36.703C233.895 36.7203 233.976 36.7348 234.058 36.7441C234.094 36.7481 234.13 36.7521 234.166 36.7547C234.24 36.7614 234.315 36.7654 234.391 36.768C234.413 36.768 234.436 36.772 234.459 36.772C234.472 36.772 234.485 36.7694 234.497 36.7694C234.641 36.7681 234.784 36.7575 234.925 36.7349C234.952 36.7309 234.978 36.7243 235.005 36.7203C235.138 36.6964 235.271 36.6645 235.4 36.6246C235.417 36.6193 235.434 36.6153 235.453 36.61C235.595 36.5622 235.733 36.5025 235.869 36.4334C235.893 36.4214 235.915 36.4094 235.938 36.3975C236.075 36.3244 236.207 36.2408 236.333 36.1465C236.338 36.1425 236.345 36.1398 236.351 36.1345C236.373 36.1186 236.393 36.1 236.414 36.0827C236.464 36.0415 236.516 36.0004 236.564 35.9566C236.601 35.922 236.637 35.8861 236.673 35.8503C236.709 35.8144 236.745 35.7798 236.778 35.7413C236.823 35.6922 236.865 35.6404 236.906 35.5886C236.922 35.5673 236.94 35.5488 236.956 35.5289L257.584 8.33567L278.213 35.5289C278.225 35.5448 278.24 35.5581 278.252 35.574C278.305 35.6417 278.361 35.7081 278.421 35.7719C278.449 35.8024 278.478 35.8317 278.507 35.8609C278.556 35.91 278.608 35.9579 278.663 36.003C278.701 36.0362 278.739 36.0694 278.778 36.1C278.793 36.1106 278.805 36.1239 278.82 36.1345C278.857 36.1624 278.895 36.1849 278.933 36.2115C278.975 36.2407 279.016 36.2713 279.06 36.2978C279.128 36.3403 279.197 36.3776 279.268 36.4134C279.296 36.4281 279.323 36.4453 279.351 36.4586C279.455 36.5091 279.56 36.5516 279.666 36.5901C279.68 36.5941 279.693 36.598 279.706 36.602C279.801 36.6339 279.895 36.6618 279.991 36.6844C280.02 36.691 280.048 36.6963 280.077 36.7016C280.158 36.7189 280.238 36.7322 280.319 36.7428C280.355 36.7468 280.392 36.7508 280.428 36.7534C280.501 36.7601 280.576 36.7641 280.649 36.7654C280.671 36.7654 280.695 36.7694 280.718 36.7694C280.731 36.7694 280.745 36.7667 280.758 36.7667C280.9 36.7641 281.042 36.7547 281.183 36.7335C281.212 36.7295 281.24 36.7229 281.268 36.7176C281.399 36.6937 281.529 36.6631 281.655 36.6232C281.675 36.6166 281.695 36.6126 281.714 36.606C281.855 36.5582 281.992 36.4984 282.126 36.432C282.151 36.4201 282.175 36.4068 282.2 36.3935C282.336 36.3205 282.467 36.2381 282.592 36.1451C282.599 36.1398 282.606 36.1372 282.612 36.1332C282.635 36.1159 282.656 36.096 282.679 36.0774C282.728 36.0376 282.777 35.9977 282.824 35.9552C282.862 35.9193 282.9 35.8822 282.937 35.8463C282.971 35.8118 283.006 35.7772 283.039 35.7413C283.084 35.6922 283.127 35.6404 283.168 35.5873C283.184 35.5674 283.203 35.5488 283.219 35.5276L303.846 8.33437L324.476 35.5276C325.094 36.3417 326.032 36.7707 326.982 36.7707C327.642 36.7707 328.31 36.5635 328.877 36.1332C330.26 35.0866 330.531 33.1169 329.483 31.7355L306.351 1.24185L306.358 1.24314Z" fill="#212E52"/>
<path d="M306.358 42.4306C305.763 41.647 304.837 41.1875 303.854 41.1875C302.872 41.1875 301.944 41.647 301.351 42.4306L280.723 69.6238L260.094 42.4306C259.5 41.647 258.573 41.1875 257.591 41.1875C256.609 41.1875 255.681 41.647 255.088 42.4306L234.46 69.6238L213.831 42.4306C213.236 41.647 212.31 41.1875 211.327 41.1875C210.345 41.1875 209.417 41.647 208.824 42.4306L188.196 69.6238L167.567 42.4306C166.973 41.647 166.046 41.1875 165.064 41.1875C164.081 41.1875 163.154 41.647 162.561 42.4306L141.933 69.6238L121.304 42.4306C120.709 41.647 119.783 41.1875 118.8 41.1875C117.818 41.1875 116.89 41.647 116.297 42.4306L95.6693 69.6238L75.0401 42.4306C74.4459 41.647 73.5193 41.1875 72.5368 41.1875C71.5544 41.1875 70.6265 41.647 70.0337 42.4306L49.4058 69.6238L28.7766 42.4306C28.1823 41.647 27.2558 41.1875 26.2734 41.1875C25.291 41.1875 24.3631 41.647 23.7702 42.4306L0.637739 72.9244C-0.409807 74.3057 -0.138624 76.2741 1.24392 77.322C2.62647 78.3686 4.59794 78.0977 5.64548 76.7164L26.2734 49.5232L46.9026 76.7164C46.9145 76.7323 46.9291 76.7456 46.9411 76.7615C46.9943 76.8292 47.0501 76.8956 47.11 76.9594C47.1379 76.9899 47.1671 77.0192 47.1964 77.0484C47.2456 77.0975 47.2974 77.1454 47.3519 77.1905C47.3905 77.2237 47.4277 77.2569 47.4675 77.2875C47.4822 77.2981 47.4941 77.3114 47.5088 77.322C47.546 77.3499 47.5846 77.3738 47.6218 77.399C47.6643 77.4282 47.7055 77.4588 47.7494 77.4853C47.8172 77.5278 47.8863 77.5651 47.9568 77.6009C47.9847 77.6156 48.0126 77.6328 48.0418 77.6461C48.1455 77.6966 48.2505 77.7391 48.3569 77.7776C48.3689 77.7816 48.3822 77.7855 48.3941 77.7895C48.4885 77.8214 48.5842 77.8493 48.6813 77.8719C48.7092 77.8785 48.7371 77.8825 48.765 77.8891C48.8461 77.9064 48.9272 77.921 49.0096 77.9303C49.0455 77.9343 49.0814 77.9383 49.116 77.9409C49.1904 77.9476 49.2662 77.9516 49.3407 77.9542C49.3633 77.9542 49.3859 77.9582 49.4085 77.9582C49.4217 77.9582 49.435 77.9555 49.447 77.9555C49.5906 77.9529 49.7328 77.9436 49.875 77.921C49.903 77.917 49.9296 77.9104 49.9561 77.9064C50.0891 77.8825 50.2207 77.8519 50.3497 77.8107C50.3683 77.8054 50.3855 77.8015 50.4041 77.7949C50.5464 77.747 50.6847 77.6872 50.8189 77.6195C50.8429 77.6076 50.8668 77.5956 50.8907 77.5823C51.0276 77.5093 51.1579 77.4269 51.2842 77.3326C51.2908 77.3286 51.2975 77.3247 51.3028 77.3207C51.3254 77.3034 51.3453 77.2848 51.3666 77.2662C51.4171 77.2264 51.4663 77.1852 51.5142 77.1427C51.5527 77.1081 51.5886 77.071 51.6258 77.0351C51.6604 77.0006 51.6963 76.966 51.7295 76.9288C51.7747 76.8797 51.8173 76.8279 51.8585 76.7761C51.8744 76.7562 51.893 76.7376 51.909 76.7164L72.5368 49.5232L93.1661 76.7164C93.178 76.7323 93.1927 76.7456 93.2047 76.7615C93.2578 76.8292 93.3136 76.8956 93.3735 76.9594C93.4014 76.9899 93.4306 77.0192 93.4599 77.0484C93.5091 77.0975 93.5609 77.1454 93.6154 77.1905C93.654 77.2237 93.6912 77.2569 93.7311 77.2875C93.7457 77.2981 93.7576 77.3114 93.7723 77.322C93.8095 77.3499 93.8481 77.3724 93.8853 77.399C93.9278 77.4282 93.969 77.4588 94.0129 77.4853C94.0807 77.5278 94.1498 77.5638 94.219 77.6009C94.2482 77.6156 94.2761 77.6328 94.3053 77.6474C94.409 77.6965 94.5127 77.7404 94.6191 77.7789C94.6324 77.7842 94.6457 77.7869 94.6603 77.7909C94.7533 77.8228 94.8491 77.8506 94.9434 77.8732C94.9727 77.8798 95.0019 77.8851 95.0299 77.8904C95.1096 77.9077 95.1907 77.921 95.2718 77.9316C95.3077 77.9369 95.3449 77.9396 95.3822 77.9436C95.4553 77.9503 95.5297 77.9542 95.6028 77.9555C95.6254 77.9555 95.6493 77.9595 95.6719 77.9595C95.6852 77.9595 95.6985 77.9569 95.7118 77.9569C95.8541 77.9542 95.9963 77.9449 96.1372 77.9237C96.1665 77.9197 96.1944 77.913 96.2223 77.9077C96.3526 77.8838 96.4815 77.8533 96.6091 77.8134C96.6291 77.8068 96.649 77.8028 96.6676 77.7962C96.8085 77.7483 96.9455 77.6886 97.0797 77.6222C97.105 77.6102 97.1289 77.597 97.1542 77.5837C97.2898 77.5106 97.4201 77.4283 97.545 77.3353C97.5517 77.33 97.5583 77.3273 97.565 77.322C97.5889 77.3047 97.6088 77.2835 97.6314 77.2662C97.6806 77.2277 97.7285 77.1879 97.775 77.1454C97.8149 77.1095 97.8508 77.0723 97.888 77.0351C97.9226 77.0006 97.9571 76.9674 97.9904 76.9302C98.0356 76.8797 98.0781 76.8279 98.1193 76.7761C98.1353 76.7562 98.1539 76.7376 98.1698 76.7164L118.798 49.5232L139.427 76.7164C139.439 76.7323 139.454 76.7456 139.465 76.7615C139.519 76.8292 139.574 76.8956 139.634 76.9594C139.662 76.9899 139.691 77.0192 139.721 77.0484C139.77 77.0975 139.822 77.1454 139.876 77.1905C139.915 77.2237 139.952 77.2569 139.992 77.2875C140.007 77.2981 140.018 77.3114 140.033 77.322C140.07 77.3499 140.109 77.3738 140.147 77.399C140.19 77.4282 140.231 77.4588 140.274 77.4853C140.342 77.5278 140.412 77.5651 140.482 77.6022C140.51 77.6169 140.537 77.6341 140.565 77.6474C140.669 77.6979 140.774 77.7404 140.88 77.7789C140.892 77.7829 140.904 77.7855 140.916 77.7895C141.012 77.8214 141.107 77.8493 141.204 77.8732C141.232 77.8798 141.26 77.8838 141.288 77.8904C141.369 77.9077 141.452 77.9223 141.533 77.9316C141.569 77.9356 141.603 77.9396 141.639 77.9422C141.713 77.9489 141.789 77.9529 141.864 77.9555C141.886 77.9555 141.909 77.9595 141.931 77.9595C141.945 77.9595 141.958 77.9569 141.97 77.9569C142.114 77.9542 142.256 77.945 142.398 77.9224C142.425 77.9184 142.453 77.9117 142.479 77.9077C142.612 77.8838 142.744 77.8533 142.873 77.8121C142.89 77.8068 142.909 77.8028 142.927 77.7962C143.069 77.7483 143.208 77.6885 143.343 77.6208C143.367 77.6089 143.391 77.5969 143.414 77.585C143.551 77.5119 143.682 77.4296 143.807 77.3353C143.814 77.3313 143.82 77.3273 143.826 77.3233C143.848 77.306 143.867 77.2875 143.89 77.2702C143.94 77.2304 143.991 77.1892 144.039 77.1454C144.077 77.1108 144.113 77.075 144.149 77.0378C144.183 77.0019 144.219 76.9674 144.253 76.9302C144.298 76.8811 144.34 76.8293 144.381 76.7775C144.397 76.7576 144.416 76.7389 144.432 76.7177L165.06 49.5245L185.689 76.7177C185.701 76.7336 185.716 76.7469 185.728 76.7628C185.781 76.8305 185.837 76.897 185.896 76.9608C185.924 76.9913 185.954 77.0205 185.983 77.0497C186.032 77.0988 186.084 77.1466 186.138 77.1918C186.177 77.225 186.214 77.2582 186.254 77.2888C186.269 77.2994 186.281 77.3127 186.295 77.3233C186.333 77.3512 186.371 77.3738 186.408 77.4004C186.451 77.4296 186.492 77.4602 186.536 77.4867C186.604 77.5292 186.673 77.5651 186.742 77.6022C186.771 77.6169 186.799 77.6341 186.828 77.6487C186.932 77.6978 187.036 77.7417 187.142 77.7802C187.155 77.7855 187.169 77.7882 187.183 77.7922C187.276 77.8241 187.372 77.852 187.467 77.8745C187.496 77.8812 187.525 77.8865 187.553 77.8918C187.633 77.9091 187.714 77.9224 187.795 77.933C187.831 77.9383 187.868 77.9409 187.905 77.9449C187.978 77.9515 188.053 77.9556 188.126 77.9569C188.148 77.9569 188.172 77.9609 188.195 77.9609C188.208 77.9609 188.222 77.9582 188.235 77.9582C188.377 77.9555 188.519 77.9462 188.66 77.925C188.689 77.921 188.717 77.9144 188.745 77.9091C188.876 77.8852 189.005 77.8546 189.132 77.8147C189.152 77.8081 189.172 77.8041 189.191 77.7974C189.332 77.7496 189.469 77.6899 189.603 77.6235C189.628 77.6115 189.652 77.5983 189.677 77.585C189.813 77.5119 189.943 77.4296 190.068 77.3366C190.075 77.3313 190.081 77.3286 190.088 77.3233C190.112 77.306 190.132 77.2848 190.154 77.2675C190.204 77.229 190.251 77.1892 190.298 77.1467C190.338 77.1108 190.374 77.0736 190.411 77.0364C190.446 77.0019 190.48 76.9687 190.513 76.9315C190.559 76.881 190.601 76.8293 190.642 76.7775C190.658 76.7576 190.677 76.7389 190.693 76.7177L211.321 49.5245L231.95 76.7177C231.962 76.7336 231.977 76.7469 231.988 76.7628C232.042 76.8305 232.098 76.897 232.157 76.9608C232.185 76.9913 232.215 77.0205 232.244 77.0497C232.293 77.0988 232.345 77.1466 232.399 77.1918C232.438 77.225 232.475 77.2582 232.515 77.2888C232.53 77.2994 232.542 77.3127 232.556 77.3233C232.593 77.3512 232.632 77.3752 232.669 77.4004C232.712 77.4296 232.753 77.4602 232.797 77.4867C232.865 77.5292 232.934 77.5664 233.004 77.6022C233.032 77.6169 233.06 77.6341 233.089 77.6474C233.193 77.6979 233.298 77.7404 233.404 77.7789C233.416 77.7829 233.43 77.7869 233.443 77.7909C233.537 77.8228 233.633 77.8506 233.729 77.8732C233.757 77.8798 233.786 77.8838 233.814 77.8904C233.895 77.9077 233.976 77.9223 234.058 77.9316C234.094 77.9356 234.13 77.9396 234.166 77.9422C234.24 77.9489 234.315 77.9529 234.391 77.9555C234.413 77.9555 234.436 77.9595 234.459 77.9595C234.472 77.9595 234.485 77.9569 234.497 77.9569C234.641 77.9556 234.784 77.945 234.925 77.9224C234.952 77.9184 234.978 77.9117 235.005 77.9077C235.138 77.8838 235.271 77.852 235.4 77.8121C235.417 77.8068 235.434 77.8028 235.453 77.7974C235.595 77.7496 235.733 77.6899 235.869 77.6208C235.893 77.6089 235.915 77.5983 235.938 77.585C236.075 77.5119 236.207 77.4282 236.333 77.3339C236.338 77.3299 236.345 77.3273 236.351 77.322C236.373 77.3061 236.393 77.2875 236.414 77.2702C236.464 77.229 236.516 77.1879 236.564 77.1441C236.601 77.1095 236.637 77.0736 236.673 77.0378C236.709 77.0019 236.745 76.9673 236.778 76.9288C236.823 76.8797 236.865 76.8279 236.906 76.7761C236.922 76.7548 236.94 76.7363 236.956 76.7164L257.584 49.5232L278.213 76.7164C278.225 76.7323 278.24 76.7456 278.252 76.7615C278.305 76.8292 278.361 76.8956 278.421 76.9594C278.449 76.9899 278.478 77.0192 278.507 77.0484C278.556 77.0975 278.608 77.1454 278.663 77.1905C278.701 77.2237 278.739 77.2569 278.778 77.2875C278.793 77.2981 278.805 77.3114 278.82 77.322C278.857 77.3499 278.895 77.3724 278.933 77.399C278.975 77.4282 279.016 77.4588 279.06 77.4853C279.128 77.5278 279.197 77.5651 279.268 77.6009C279.296 77.6156 279.323 77.6328 279.351 77.6461C279.455 77.6966 279.56 77.7391 279.666 77.7776C279.68 77.7816 279.693 77.7855 279.706 77.7895C279.801 77.8214 279.895 77.8493 279.991 77.8719C280.02 77.8785 280.048 77.8838 280.077 77.8891C280.158 77.9064 280.238 77.9197 280.319 77.9303C280.355 77.9343 280.392 77.9383 280.428 77.9409C280.501 77.9476 280.576 77.9515 280.649 77.9529C280.671 77.9529 280.695 77.9569 280.718 77.9569C280.731 77.9569 280.745 77.9542 280.758 77.9542C280.9 77.9516 281.042 77.9422 281.183 77.921C281.212 77.917 281.24 77.9104 281.268 77.9051C281.399 77.8812 281.529 77.8506 281.655 77.8107C281.675 77.8041 281.695 77.8001 281.714 77.7935C281.855 77.7457 281.992 77.6859 282.126 77.6195C282.151 77.6076 282.175 77.5943 282.2 77.5823C282.336 77.5093 282.467 77.4269 282.592 77.3339C282.599 77.3286 282.606 77.326 282.612 77.322C282.635 77.3047 282.656 77.2848 282.679 77.2662C282.728 77.2264 282.777 77.1866 282.824 77.1441C282.862 77.1082 282.9 77.071 282.937 77.0351C282.971 77.0006 283.006 76.9661 283.039 76.9302C283.084 76.8811 283.127 76.8292 283.168 76.7761C283.184 76.7562 283.203 76.7376 283.219 76.7164L303.846 49.5232L324.476 76.7164C325.094 77.5305 326.032 77.9595 326.982 77.9595C327.642 77.9595 328.31 77.7523 328.877 77.322C330.26 76.2754 330.531 74.3057 329.483 72.9244L306.351 42.4306H306.358Z" fill="#212E52"/>
<path d="M306.358 83.6142C305.763 82.8306 304.837 82.3711 303.854 82.3711C302.872 82.3711 301.944 82.8306 301.351 83.6142L280.723 110.807L260.094 83.6142C259.5 82.8306 258.573 82.3711 257.591 82.3711C256.609 82.3711 255.681 82.8306 255.088 83.6142L234.46 110.807L213.831 83.6142C213.236 82.8306 212.31 82.3711 211.327 82.3711C210.345 82.3711 209.417 82.8306 208.824 83.6142L188.196 110.807L167.567 83.6142C166.973 82.8306 166.046 82.3711 165.064 82.3711C164.081 82.3711 163.154 82.8306 162.561 83.6142L141.933 110.807L121.304 83.6142C120.709 82.8306 119.783 82.3711 118.8 82.3711C117.818 82.3711 116.89 82.8306 116.297 83.6142L95.6693 110.807L75.0401 83.6142C74.4459 82.8306 73.5193 82.3711 72.5368 82.3711C71.5544 82.3711 70.6265 82.8306 70.0337 83.6142L49.4058 110.807L28.7766 83.6142C28.1823 82.8306 27.2558 82.3711 26.2734 82.3711C25.291 82.3711 24.3631 82.8306 23.7702 83.6142L0.637739 114.108C-0.409807 115.489 -0.138624 117.458 1.24392 118.506C2.62647 119.552 4.59794 119.281 5.64548 117.9L26.2734 90.7068L46.9026 117.9C46.9145 117.916 46.9291 117.929 46.9411 117.945C46.9943 118.013 47.0501 118.079 47.11 118.143C47.1379 118.174 47.1671 118.203 47.1964 118.232C47.2456 118.281 47.2974 118.329 47.3519 118.374C47.3905 118.407 47.4277 118.441 47.4675 118.471C47.4822 118.482 47.4941 118.495 47.5088 118.506C47.546 118.533 47.5846 118.557 47.6218 118.583C47.6643 118.612 47.7055 118.642 47.7494 118.669C47.8172 118.711 47.8863 118.749 47.9568 118.784C47.9847 118.799 48.0126 118.816 48.0418 118.831C48.1455 118.881 48.2505 118.924 48.3569 118.962C48.3689 118.966 48.3822 118.969 48.3941 118.974C48.4885 119.006 48.5842 119.034 48.6813 119.057C48.7092 119.063 48.7371 119.067 48.765 119.074C48.8461 119.091 48.9272 119.106 49.0096 119.115C49.0455 119.119 49.0814 119.123 49.116 119.126C49.1904 119.132 49.2662 119.136 49.3407 119.139C49.3633 119.139 49.3859 119.143 49.4085 119.143C49.4217 119.143 49.435 119.14 49.447 119.14C49.5906 119.138 49.7328 119.128 49.875 119.106C49.903 119.102 49.9296 119.095 49.9561 119.091C50.0891 119.067 50.2207 119.037 50.3497 118.996C50.3683 118.99 50.3855 118.986 50.4041 118.98C50.5464 118.932 50.6847 118.872 50.8189 118.804C50.8429 118.792 50.8668 118.78 50.8907 118.767C51.0276 118.694 51.1579 118.612 51.2842 118.518C51.2908 118.514 51.2975 118.51 51.3028 118.506C51.3254 118.488 51.3453 118.47 51.3666 118.451C51.4171 118.411 51.4663 118.37 51.5142 118.328C51.5527 118.293 51.5886 118.256 51.6258 118.22C51.6604 118.185 51.6963 118.151 51.7295 118.114C51.7747 118.065 51.8173 118.013 51.8585 117.961C51.8744 117.941 51.893 117.922 51.909 117.901L72.5368 90.7081L93.1661 117.901C93.178 117.917 93.1927 117.93 93.2047 117.946C93.2578 118.014 93.3136 118.081 93.3735 118.144C93.4014 118.175 93.4306 118.204 93.4599 118.233C93.5091 118.282 93.5609 118.33 93.6154 118.375C93.654 118.409 93.6912 118.442 93.7311 118.472C93.7457 118.483 93.7576 118.496 93.7723 118.507C93.8095 118.535 93.8481 118.557 93.8853 118.584C93.9278 118.613 93.969 118.644 94.0129 118.67C94.0807 118.713 94.1498 118.749 94.219 118.786C94.2482 118.8 94.2761 118.818 94.3053 118.832C94.409 118.881 94.5127 118.925 94.6191 118.964C94.6324 118.969 94.6457 118.972 94.6603 118.976C94.7533 119.008 94.8491 119.036 94.9434 119.058C94.9727 119.065 95.0019 119.07 95.0299 119.075C95.1096 119.093 95.1907 119.106 95.2718 119.117C95.3077 119.12 95.3449 119.125 95.3822 119.127C95.4553 119.134 95.5297 119.138 95.6028 119.139C95.6254 119.139 95.6493 119.143 95.6719 119.143C95.6852 119.143 95.6985 119.14 95.7118 119.14C95.8541 119.138 95.9963 119.129 96.1372 119.107C96.1665 119.103 96.1944 119.097 96.2223 119.091C96.3526 119.067 96.4815 119.037 96.6091 118.997C96.6291 118.99 96.649 118.986 96.6676 118.98C96.8085 118.932 96.9455 118.872 97.0797 118.806C97.105 118.794 97.1289 118.78 97.1542 118.767C97.2898 118.694 97.4201 118.612 97.545 118.519C97.5517 118.514 97.5583 118.511 97.565 118.506C97.5889 118.488 97.6088 118.467 97.6314 118.45C97.6806 118.411 97.7285 118.371 97.775 118.329C97.8149 118.293 97.8508 118.256 97.888 118.219C97.9226 118.184 97.9571 118.151 97.9904 118.114C98.0356 118.063 98.0781 118.011 98.1193 117.96C98.1353 117.94 98.1539 117.921 98.1698 117.9L118.798 90.7068L139.427 117.9C139.439 117.916 139.454 117.929 139.465 117.945C139.519 118.013 139.574 118.079 139.634 118.143C139.662 118.174 139.691 118.203 139.721 118.232C139.77 118.281 139.822 118.329 139.876 118.374C139.915 118.407 139.952 118.441 139.992 118.471C140.007 118.482 140.018 118.495 140.033 118.506C140.07 118.533 140.109 118.557 140.147 118.583C140.19 118.612 140.231 118.642 140.274 118.669C140.342 118.711 140.412 118.749 140.482 118.786C140.51 118.8 140.537 118.818 140.565 118.831C140.669 118.881 140.774 118.924 140.88 118.962C140.892 118.966 140.904 118.969 140.916 118.973C141.012 119.005 141.107 119.033 141.204 119.057C141.232 119.063 141.26 119.067 141.288 119.074C141.369 119.091 141.452 119.106 141.533 119.115C141.569 119.119 141.603 119.123 141.639 119.126C141.713 119.132 141.789 119.136 141.864 119.139C141.886 119.139 141.909 119.143 141.931 119.143C141.945 119.143 141.958 119.14 141.97 119.14C142.114 119.138 142.256 119.128 142.398 119.106C142.425 119.102 142.453 119.095 142.479 119.091C142.612 119.067 142.744 119.037 142.873 118.996C142.89 118.99 142.909 118.986 142.927 118.98C143.069 118.932 143.208 118.872 143.343 118.804C143.367 118.792 143.391 118.781 143.414 118.769C143.551 118.696 143.682 118.613 143.807 118.519C143.814 118.515 143.82 118.511 143.826 118.507C143.848 118.49 143.867 118.471 143.89 118.454C143.94 118.414 143.991 118.373 144.039 118.329C144.077 118.294 144.113 118.259 144.149 118.221C144.183 118.186 144.219 118.151 144.253 118.114C144.298 118.065 144.34 118.013 144.381 117.961C144.397 117.941 144.416 117.922 144.432 117.901L165.06 90.7081L185.689 117.901C185.701 117.917 185.716 117.93 185.728 117.946C185.781 118.014 185.837 118.081 185.896 118.144C185.924 118.175 185.954 118.204 185.983 118.233C186.032 118.282 186.084 118.33 186.138 118.375C186.177 118.409 186.214 118.442 186.254 118.472C186.269 118.483 186.281 118.496 186.295 118.507C186.333 118.535 186.371 118.557 186.408 118.584C186.451 118.613 186.492 118.644 186.536 118.67C186.604 118.713 186.673 118.749 186.742 118.786C186.771 118.8 186.799 118.818 186.828 118.832C186.932 118.881 187.036 118.925 187.142 118.964C187.155 118.969 187.169 118.972 187.183 118.976C187.276 119.008 187.372 119.036 187.467 119.058C187.496 119.065 187.525 119.07 187.553 119.075C187.633 119.093 187.714 119.106 187.795 119.117C187.831 119.12 187.868 119.125 187.905 119.127C187.978 119.134 188.053 119.138 188.126 119.139C188.148 119.139 188.172 119.143 188.195 119.143C188.208 119.143 188.222 119.14 188.235 119.14C188.377 119.138 188.519 119.129 188.66 119.107C188.689 119.103 188.717 119.097 188.745 119.091C188.876 119.067 189.005 119.037 189.132 118.997C189.152 118.99 189.172 118.986 189.191 118.98C189.332 118.932 189.469 118.872 189.603 118.806C189.628 118.794 189.652 118.78 189.677 118.767C189.813 118.694 189.943 118.612 190.068 118.519C190.075 118.514 190.081 118.511 190.088 118.506C190.112 118.488 190.132 118.467 190.154 118.45C190.204 118.411 190.251 118.371 190.298 118.329C190.338 118.293 190.374 118.256 190.411 118.219C190.446 118.184 190.48 118.151 190.513 118.114C190.559 118.063 190.601 118.011 190.642 117.96C190.658 117.94 190.677 117.921 190.693 117.9L211.321 90.7068L231.95 117.9C231.962 117.916 231.977 117.929 231.988 117.945C232.042 118.013 232.098 118.079 232.157 118.143C232.185 118.174 232.215 118.203 232.244 118.232C232.293 118.281 232.345 118.329 232.399 118.374C232.438 118.407 232.475 118.441 232.515 118.471C232.53 118.482 232.542 118.495 232.556 118.506C232.593 118.533 232.632 118.557 232.669 118.583C232.712 118.612 232.753 118.642 232.797 118.669C232.865 118.711 232.934 118.749 233.004 118.784C233.032 118.799 233.06 118.816 233.089 118.831C233.193 118.881 233.298 118.924 233.404 118.962C233.416 118.966 233.43 118.97 233.443 118.974C233.537 119.006 233.633 119.034 233.729 119.057C233.757 119.063 233.786 119.067 233.814 119.074C233.895 119.091 233.976 119.106 234.058 119.115C234.094 119.119 234.13 119.123 234.166 119.126C234.24 119.132 234.315 119.136 234.391 119.139C234.413 119.139 234.436 119.143 234.459 119.143C234.472 119.143 234.485 119.14 234.497 119.14C234.641 119.139 234.784 119.128 234.925 119.106C234.952 119.102 234.978 119.095 235.005 119.091C235.138 119.067 235.271 119.036 235.4 118.996C235.417 118.99 235.434 118.986 235.453 118.981C235.595 118.933 235.733 118.873 235.869 118.804C235.893 118.792 235.915 118.782 235.938 118.769C236.075 118.696 236.207 118.612 236.333 118.518C236.338 118.514 236.345 118.511 236.351 118.506C236.373 118.49 236.393 118.471 236.414 118.454C236.464 118.413 236.516 118.371 236.564 118.328C236.601 118.293 236.637 118.257 236.673 118.221C236.709 118.186 236.745 118.151 236.778 118.114C236.823 118.065 236.865 118.013 236.906 117.961C236.922 117.94 236.94 117.921 236.956 117.901L257.584 90.7081L278.213 117.901C278.225 117.917 278.24 117.93 278.252 117.946C278.305 118.014 278.361 118.081 278.421 118.144C278.449 118.175 278.478 118.204 278.507 118.233C278.556 118.282 278.608 118.33 278.663 118.375C278.701 118.409 278.739 118.442 278.778 118.472C278.793 118.483 278.805 118.496 278.82 118.507C278.857 118.535 278.895 118.557 278.933 118.584C278.975 118.613 279.016 118.644 279.06 118.67C279.128 118.713 279.197 118.75 279.268 118.786C279.296 118.8 279.323 118.818 279.351 118.831C279.455 118.881 279.56 118.924 279.666 118.962C279.68 118.966 279.693 118.97 279.706 118.974C279.801 119.006 279.895 119.034 279.991 119.057C280.02 119.063 280.048 119.069 280.077 119.074C280.158 119.091 280.238 119.105 280.319 119.115C280.355 119.119 280.392 119.123 280.428 119.126C280.501 119.132 280.576 119.136 280.649 119.138C280.671 119.138 280.695 119.142 280.718 119.142C280.731 119.142 280.745 119.139 280.758 119.139C280.9 119.136 281.042 119.127 281.183 119.106C281.212 119.102 281.24 119.095 281.268 119.09C281.399 119.066 281.529 119.036 281.655 118.996C281.675 118.989 281.695 118.985 281.714 118.978C281.855 118.931 281.992 118.871 282.126 118.804C282.151 118.792 282.175 118.779 282.2 118.767C282.336 118.694 282.467 118.612 282.592 118.519C282.599 118.514 282.606 118.511 282.612 118.507C282.635 118.49 282.656 118.47 282.679 118.451C282.728 118.411 282.777 118.371 282.824 118.329C282.862 118.293 282.9 118.257 282.937 118.22C282.971 118.185 283.006 118.151 283.039 118.115C283.084 118.066 283.127 118.014 283.168 117.961C283.184 117.941 283.203 117.922 283.219 117.901L303.846 90.7081L324.476 117.901C325.094 118.715 326.032 119.144 326.982 119.144C327.642 119.144 328.31 118.937 328.877 118.507C330.26 117.46 330.531 115.491 329.483 114.109L306.351 83.6156L306.358 83.6142Z" fill="#212E52"/>
<path d="M306.358 124.802C305.763 124.018 304.837 123.559 303.854 123.559C302.872 123.559 301.944 124.018 301.351 124.802L280.723 151.995L260.094 124.802C259.5 124.018 258.573 123.559 257.591 123.559C256.609 123.559 255.681 124.018 255.088 124.802L234.46 151.995L213.831 124.802C213.236 124.018 212.31 123.559 211.327 123.559C210.345 123.559 209.417 124.018 208.824 124.802L188.196 151.995L167.567 124.802C166.973 124.018 166.046 123.559 165.064 123.559C164.081 123.559 163.154 124.018 162.561 124.802L141.933 151.995L121.304 124.802C120.709 124.018 119.783 123.559 118.8 123.559C117.818 123.559 116.89 124.018 116.297 124.802L95.6693 151.995L75.0401 124.802C74.4459 124.018 73.5193 123.559 72.5368 123.559C71.5544 123.559 70.6265 124.018 70.0337 124.802L49.4058 151.995L28.7766 124.802C28.1823 124.018 27.2558 123.559 26.2734 123.559C25.291 123.559 24.3631 124.018 23.7702 124.802L0.637739 155.296C-0.409807 156.677 -0.138624 158.645 1.24392 159.693C2.62647 160.74 4.59794 160.469 5.64548 159.087L26.2734 131.894L46.9026 159.087C46.9145 159.103 46.9291 159.117 46.9411 159.133C46.9943 159.2 47.0501 159.267 47.11 159.33C47.1379 159.361 47.1671 159.39 47.1964 159.419C47.2456 159.469 47.2974 159.516 47.3519 159.562C47.3905 159.595 47.4277 159.628 47.4675 159.659C47.4822 159.669 47.4941 159.682 47.5088 159.693C47.546 159.721 47.5846 159.745 47.6218 159.77C47.6643 159.799 47.7055 159.83 47.7494 159.856C47.8172 159.899 47.8863 159.936 47.9568 159.972C47.9847 159.987 48.0126 160.004 48.0418 160.018C48.1455 160.069 48.2505 160.111 48.3569 160.15C48.3689 160.154 48.3822 160.157 48.3941 160.162C48.4885 160.194 48.5842 160.222 48.6813 160.244C48.7092 160.251 48.7371 160.255 48.765 160.262C48.8461 160.279 48.9272 160.293 49.0096 160.303C49.0455 160.307 49.0814 160.311 49.116 160.313C49.1904 160.32 49.2662 160.324 49.3407 160.327C49.3633 160.327 49.3859 160.331 49.4085 160.331C49.4217 160.331 49.435 160.328 49.447 160.328C49.5906 160.325 49.7328 160.316 49.875 160.293C49.903 160.289 49.9296 160.283 49.9561 160.279C50.0891 160.255 50.2207 160.224 50.3497 160.183C50.3683 160.178 50.3855 160.174 50.4041 160.167C50.5464 160.119 50.6847 160.06 50.8189 159.992C50.8429 159.98 50.8668 159.968 50.8907 159.955C51.0276 159.882 51.1579 159.799 51.2842 159.705C51.2908 159.701 51.2975 159.697 51.3028 159.693C51.3254 159.676 51.3453 159.657 51.3666 159.639C51.4171 159.599 51.4663 159.558 51.5142 159.515C51.5527 159.481 51.5886 159.443 51.6258 159.408C51.6604 159.373 51.6963 159.338 51.7295 159.301C51.7747 159.252 51.8173 159.2 51.8585 159.149C51.8744 159.129 51.893 159.11 51.909 159.089L72.5368 131.896L93.1661 159.089C93.178 159.105 93.1927 159.118 93.2047 159.134C93.2578 159.202 93.3136 159.268 93.3735 159.332C93.4014 159.362 93.4306 159.392 93.4599 159.421C93.5091 159.47 93.5609 159.518 93.6154 159.563C93.654 159.596 93.6912 159.629 93.7311 159.66C93.7457 159.67 93.7576 159.684 93.7723 159.694C93.8095 159.722 93.8481 159.746 93.8866 159.771C93.9292 159.801 93.9703 159.831 94.0129 159.858C94.082 159.9 94.1538 159.939 94.2256 159.976C94.2522 159.989 94.2774 160.007 94.3053 160.018C94.409 160.069 94.5141 160.113 94.6217 160.15C94.6324 160.154 94.643 160.157 94.6537 160.159C94.7494 160.193 94.8477 160.22 94.9461 160.244C94.974 160.251 95.0006 160.255 95.0285 160.262C95.1109 160.279 95.192 160.293 95.2745 160.304C95.3103 160.308 95.3449 160.312 95.3808 160.315C95.4553 160.321 95.5297 160.325 95.6042 160.327C95.6268 160.327 95.6493 160.331 95.6719 160.331C95.6852 160.331 95.6985 160.328 95.7118 160.328C95.8541 160.325 95.9963 160.316 96.1372 160.295C96.1665 160.291 96.1944 160.284 96.2236 160.279C96.3539 160.255 96.4828 160.224 96.6091 160.186C96.6291 160.179 96.649 160.175 96.6703 160.169C96.8112 160.122 96.9468 160.062 97.0811 159.995C97.1063 159.981 97.1316 159.969 97.1582 159.956C97.2925 159.884 97.4227 159.802 97.5477 159.709C97.5544 159.704 97.5623 159.701 97.569 159.696C97.5929 159.677 97.6142 159.656 97.6381 159.637C97.686 159.599 97.7338 159.56 97.779 159.519C97.8189 159.483 97.8574 159.445 97.8947 159.406C97.9279 159.373 97.9625 159.34 97.9944 159.304C98.0396 159.254 98.0821 159.202 98.1246 159.15C98.1406 159.13 98.1592 159.111 98.1751 159.09L118.803 131.897L139.432 159.09C139.444 159.106 139.459 159.119 139.471 159.135C139.524 159.203 139.58 159.269 139.64 159.333C139.668 159.364 139.697 159.393 139.726 159.422C139.775 159.471 139.827 159.519 139.882 159.564C139.92 159.597 139.957 159.631 139.997 159.661C140.012 159.672 140.024 159.685 140.038 159.696C140.076 159.724 140.114 159.748 140.153 159.773C140.195 159.802 140.236 159.833 140.279 159.859C140.347 159.902 140.417 159.939 140.488 159.976C140.516 159.991 140.542 160.008 140.57 160.021C140.674 160.072 140.779 160.114 140.885 160.153C140.897 160.157 140.909 160.159 140.921 160.163C141.017 160.195 141.113 160.223 141.21 160.247C141.238 160.254 141.265 160.258 141.293 160.264C141.374 160.281 141.457 160.296 141.538 160.305C141.574 160.309 141.608 160.313 141.644 160.316C141.719 160.323 141.795 160.327 141.869 160.329C141.892 160.329 141.914 160.333 141.937 160.333C141.95 160.333 141.963 160.331 141.975 160.331C142.119 160.328 142.261 160.319 142.403 160.296C142.43 160.292 142.458 160.285 142.484 160.281C142.617 160.258 142.749 160.227 142.878 160.186C142.895 160.181 142.914 160.177 142.932 160.17C143.075 160.122 143.213 160.062 143.349 159.995C143.372 159.983 143.396 159.971 143.419 159.959C143.556 159.886 143.688 159.803 143.813 159.709C143.819 159.705 143.826 159.701 143.831 159.697C143.854 159.68 143.872 159.661 143.895 159.644C143.945 159.604 143.996 159.563 144.044 159.519C144.082 159.485 144.118 159.449 144.154 159.412C144.189 159.376 144.225 159.341 144.258 159.304C144.303 159.255 144.346 159.203 144.387 159.151C144.403 159.131 144.421 159.113 144.437 159.091L165.065 131.898L185.694 159.091C185.706 159.107 185.721 159.121 185.733 159.137C185.786 159.204 185.842 159.271 185.902 159.334C185.93 159.365 185.959 159.394 185.988 159.423C186.037 159.473 186.089 159.52 186.144 159.566C186.182 159.599 186.22 159.632 186.259 159.663C186.274 159.673 186.286 159.686 186.301 159.697C186.338 159.725 186.376 159.749 186.415 159.774C186.457 159.803 186.499 159.834 186.541 159.86C186.61 159.903 186.682 159.942 186.754 159.979C186.781 159.992 186.806 160.009 186.834 160.021C186.937 160.072 187.042 160.115 187.15 160.153C187.161 160.157 187.171 160.159 187.182 160.162C187.278 160.195 187.376 160.223 187.474 160.247C187.502 160.254 187.529 160.258 187.557 160.264C187.639 160.281 187.72 160.296 187.803 160.307C187.839 160.311 187.873 160.315 187.909 160.317C187.984 160.324 188.058 160.328 188.132 160.329C188.155 160.329 188.178 160.333 188.2 160.333C188.214 160.333 188.227 160.331 188.24 160.331C188.382 160.328 188.525 160.319 188.666 160.297C188.695 160.293 188.723 160.287 188.752 160.281C188.882 160.258 189.011 160.227 189.137 160.188C189.157 160.182 189.177 160.178 189.199 160.171C189.34 160.125 189.475 160.065 189.609 159.997C189.635 159.984 189.66 159.972 189.687 159.959C189.821 159.887 189.951 159.805 190.076 159.712C190.083 159.706 190.091 159.704 190.097 159.698C190.121 159.68 190.142 159.659 190.166 159.64C190.214 159.601 190.262 159.563 190.307 159.522C190.347 159.486 190.386 159.447 190.423 159.409C190.456 159.376 190.491 159.342 190.523 159.307C190.568 159.256 190.61 159.204 190.653 159.153C190.669 159.133 190.688 159.114 190.704 159.093L211.331 131.9L231.961 159.093C231.973 159.109 231.987 159.122 231.999 159.138C232.052 159.206 232.108 159.272 232.168 159.336C232.196 159.366 232.225 159.396 232.254 159.425C232.304 159.474 232.355 159.522 232.41 159.567C232.448 159.6 232.486 159.633 232.526 159.664C232.54 159.675 232.552 159.688 232.567 159.698C232.604 159.726 232.643 159.75 232.68 159.775C232.722 159.805 232.764 159.835 232.807 159.862C232.875 159.904 232.944 159.941 233.015 159.977C233.043 159.992 233.071 160.009 233.1 160.024C233.204 160.074 233.309 160.117 233.415 160.155C233.427 160.159 233.44 160.163 233.453 160.167C233.548 160.199 233.644 160.227 233.739 160.25C233.767 160.256 233.796 160.26 233.824 160.267C233.905 160.284 233.987 160.299 234.069 160.308C234.105 160.312 234.141 160.316 234.177 160.319C234.251 160.325 234.326 160.329 234.401 160.332C234.424 160.332 234.447 160.336 234.469 160.336C234.482 160.336 234.496 160.333 234.508 160.333C234.651 160.332 234.795 160.321 234.936 160.299C234.962 160.295 234.989 160.288 235.015 160.284C235.148 160.26 235.281 160.228 235.41 160.188C235.428 160.183 235.445 160.179 235.463 160.174C235.606 160.126 235.744 160.066 235.88 159.997C235.903 159.985 235.926 159.973 235.949 159.961C236.086 159.888 236.217 159.805 236.344 159.71C236.349 159.706 236.355 159.704 236.362 159.698C236.383 159.683 236.403 159.664 236.425 159.647C236.475 159.605 236.527 159.564 236.575 159.52C236.612 159.486 236.648 159.45 236.684 159.414C236.72 159.378 236.756 159.344 236.789 159.307C236.834 159.257 236.875 159.206 236.917 159.154C236.932 159.133 236.951 159.114 236.967 159.094L257.595 131.901L278.224 159.094C278.236 159.11 278.251 159.123 278.263 159.139C278.316 159.207 278.372 159.273 278.431 159.337C278.459 159.368 278.489 159.397 278.518 159.426C278.567 159.475 278.619 159.523 278.673 159.568C278.712 159.601 278.749 159.635 278.789 159.665C278.804 159.676 278.816 159.689 278.83 159.7C278.868 159.728 278.906 159.752 278.945 159.777C278.987 159.806 279.027 159.835 279.071 159.863C279.141 159.907 279.212 159.945 279.285 159.983C279.311 159.996 279.337 160.012 279.363 160.025C279.467 160.076 279.573 160.119 279.68 160.157C279.69 160.161 279.701 160.163 279.71 160.166C279.807 160.199 279.904 160.227 280.004 160.251C280.031 160.258 280.059 160.262 280.087 160.267C280.169 160.284 280.251 160.299 280.334 160.309C280.37 160.313 280.404 160.317 280.44 160.32C280.515 160.327 280.589 160.331 280.663 160.332C280.686 160.332 280.709 160.336 280.731 160.336C280.745 160.336 280.758 160.333 280.771 160.333C280.913 160.331 281.056 160.321 281.197 160.3C281.226 160.296 281.254 160.289 281.283 160.284C281.413 160.26 281.542 160.23 281.669 160.19C281.688 160.183 281.708 160.179 281.728 160.173C281.869 160.126 282.006 160.066 282.139 159.999C282.164 159.985 282.19 159.973 282.215 159.96C282.35 159.887 282.481 159.806 282.606 159.713C282.612 159.708 282.619 159.705 282.626 159.7C282.65 159.681 282.671 159.661 282.695 159.643C282.743 159.604 282.79 159.566 282.837 159.523C282.877 159.487 282.914 159.449 282.951 159.412C282.985 159.377 283.019 159.344 283.052 159.308C283.098 159.257 283.14 159.206 283.183 159.154C283.199 159.134 283.217 159.115 283.233 159.094L303.861 131.901L324.49 159.094C325.108 159.908 326.047 160.337 326.996 160.337C327.657 160.337 328.324 160.13 328.892 159.7C330.274 158.653 330.546 156.683 329.498 155.302L306.366 124.808L306.358 124.802Z" fill="#212E52"/>
</svg>
