<svg width="331" height="170" viewBox="0 0 331 170" fill="none" xmlns="http://www.w3.org/2000/svg">
<path d="M325.848 0.131833L245.919 23.1081L165.991 0.131833C165.384 -0.0421583 164.741 -0.0421583 164.135 0.131833L84.2103 23.1081L4.28444 0.131833C2.50441 -0.378188 0.644619 0.647204 0.131481 2.42697C-0.380327 4.20673 0.647274 6.06348 2.42863 6.57616L83.2824 29.8193C83.8886 29.9933 84.532 29.9933 85.1382 29.8193L165.063 6.84319L244.991 29.8193C245.294 29.907 245.607 29.9495 245.919 29.9495C246.232 29.9495 246.544 29.9057 246.847 29.8193L327.704 6.57616C329.485 6.06348 330.513 4.20673 330.001 2.42697C329.488 0.647204 327.629 -0.380845 325.848 0.131833Z" fill="#212E52"/>
<path d="M325.848 46.8032L245.919 69.7795L165.991 46.8032C165.384 46.6292 164.741 46.6292 164.135 46.8032L84.2103 69.7795L4.28444 46.8032C2.50441 46.2932 0.644619 47.3186 0.131481 49.0984C-0.380327 50.8781 0.647274 52.7349 2.42863 53.2476L83.2824 76.4907C83.8886 76.6647 84.532 76.6647 85.1382 76.4907L165.063 53.5146L244.991 76.4907C245.294 76.5784 245.607 76.6209 245.919 76.6209C246.232 76.6209 246.544 76.5771 246.847 76.4907L327.704 53.2476C329.485 52.7349 330.513 50.8781 330.001 49.0984C329.488 47.3186 327.629 46.2919 325.848 46.8032Z" fill="#212E52"/>
<path d="M325.848 93.4829L245.919 116.459L165.991 93.4829C165.384 93.3089 164.741 93.3089 164.135 93.4829L84.2103 116.459L4.28444 93.4829C2.50441 92.9729 0.644619 93.9983 0.131481 95.7781C-0.380327 97.5578 0.647274 99.4146 2.42863 99.9272L83.2824 123.17C83.8886 123.344 84.532 123.344 85.1382 123.17L165.063 100.194L244.991 123.17C245.294 123.258 245.607 123.301 245.919 123.301C246.232 123.301 246.544 123.257 246.847 123.17L327.704 99.9272C329.485 99.4159 330.513 97.5578 330.001 95.7781C329.488 93.9983 327.629 92.9716 325.848 93.4829Z" fill="#212E52"/>
<path d="M325.848 140.155L245.919 163.131L165.991 140.155C165.384 139.981 164.741 139.981 164.135 140.155L84.2103 163.131L4.28444 140.155C2.50441 139.645 0.644619 140.67 0.131481 142.45C-0.380327 144.23 0.647274 146.086 2.42863 146.599L83.2824 169.842C83.8886 170.016 84.532 170.016 85.1382 169.842L165.063 146.866L244.991 169.842C245.294 169.93 245.607 169.972 245.919 169.972C246.232 169.972 246.544 169.929 246.847 169.842L327.704 146.599C329.485 146.088 330.513 144.23 330.001 142.45C329.488 140.67 327.629 139.643 325.848 140.155Z" fill="#212E52"/>
</svg>
