<svg width="358" height="358" viewBox="0 0 358 358" fill="none" xmlns="http://www.w3.org/2000/svg">
<path d="M350.001 178.608C350.001 85.3987 275.595 9.5672 182.939 7.26958V7.50609L315.06 282.331C336.983 253.535 350.001 217.592 350.001 178.608ZM48.7469 290.464C80.1772 326.92 126.697 350 178.609 350C230.52 350 277.04 326.92 308.47 290.464H48.7469ZM182.939 283.247H307.494L182.939 24.1612V283.247ZM51.1671 283.247H175.722V24.1612L51.1671 283.247ZM7.21635 178.608C7.21635 218.115 20.5859 254.499 43.0444 283.486L175.722 7.50609V7.24069C82.3962 8.78209 7.21655 84.9153 7.21635 178.608ZM357.218 178.608C357.218 220.552 342.757 259.117 318.552 289.595L318.97 290.464H317.862C285.125 331.167 234.909 357.217 178.609 357.217C79.9658 357.217 0 277.25 0 178.608C0.000203863 80.9297 78.4104 1.56563 175.722 0.0234706V0H182.939V0.0514549C279.581 2.3508 357.218 81.413 357.218 178.608Z" fill="#F6A11B"/>
</svg>
