<svg width="960" height="560" viewBox="0 0 960 560" fill="none" xmlns="http://www.w3.org/2000/svg">
<path d="M465.393 281.608C465.392 188.399 390.987 112.567 298.331 110.27V110.506L430.452 385.331C452.375 356.535 465.393 320.592 465.393 281.608ZM164.139 393.464C195.569 429.92 242.089 453 294 453C345.912 453 392.432 429.92 423.862 393.464H164.139ZM298.331 386.247H422.885L298.331 127.161V386.247ZM166.559 386.247H291.113V127.161L166.559 386.247ZM122.608 281.608C122.608 321.115 135.977 357.499 158.436 386.486L291.113 110.506V110.241C197.788 111.782 122.608 187.915 122.608 281.608ZM472.61 281.608C472.61 323.552 458.148 362.117 433.944 392.595L434.362 393.464H433.254C400.517 434.167 350.301 460.217 294 460.217C195.357 460.217 115.392 380.25 115.392 281.608C115.392 183.93 193.802 104.566 291.113 103.023V103H298.331V103.051C394.973 105.351 472.61 184.413 472.61 281.608Z" fill="#F6A11B"/>
<path d="M600.685 172.971L596.948 176.051L594.094 178.471C592.508 176.974 592.584 177.108 591.376 176.051C589.534 174.451 587.284 173.651 584.627 173.651C581.698 173.651 579.433 174.451 577.832 176.051C576.322 177.561 575.567 179.312 575.567 181.305C575.567 183.509 576.519 185.381 578.421 186.921C579.659 187.917 582.966 189.533 588.341 191.767C593.747 194.032 597.355 195.783 599.167 197.021C604.301 200.554 606.868 205.219 606.868 211.016C606.868 216.813 604.799 221.614 600.662 225.419C596.706 229.042 591.436 230.854 584.853 230.854C578.3 230.854 572.91 228.71 568.682 224.422C565.941 220.941 565.754 220.567 563.883 216.077L571.928 211.586C572.924 215.059 574.828 216.979 576.519 218.67C578.874 221.025 581.818 222.203 585.352 222.203C588.704 222.203 591.467 221.252 593.641 219.35C595.845 217.447 596.948 215.047 596.948 212.148C596.948 209.431 595.996 207.242 594.094 205.581C592.493 204.222 589.413 202.577 584.853 200.644C579.387 198.35 575.643 196.568 573.62 195.3C568.335 192.009 565.693 187.706 565.693 182.392C565.693 177.5 567.459 173.409 570.992 170.118C574.616 166.706 579.221 165 584.808 165C591.844 165 596.004 166.842 600.685 172.971Z" fill="#212E52"/>
<path d="M668.906 221.677H697.244V230.857H658.927V165H697.244V174.28H668.906V192.241H689.86V201.421H668.906V221.677Z" fill="#212E52"/>
<path d="M749 231L778.094 165H787.386L816 231H805L797.133 212.901H768.165L761 231H749ZM782.649 179.443L772.264 203.394H793.034L782.649 179.443Z" fill="#212E52"/>
<path d="M577.314 322.597V331.777H538.997V265.92H548.975V322.597H577.314ZM644.328 265.92V331.777H634.349V265.92H644.328ZM716.683 331.777H706.704V265.92H745.021V275.2H716.683V294.957H737.637V304.237H716.683V331.777ZM813.01 322.597H841.349V331.777H803.032V265.92H841.349V275.2H813.01V293.161H833.965V302.341H813.01V322.597Z" fill="#212E52"/>
<path d="M581.282 397.55V389.355L575.051 378.571H578.352L582.734 386.168L587.115 378.571H590.416L584.185 389.355V397.55H581.282ZM607.559 397.55L605.567 392.969H597.458L595.381 397.55H592.251L601.698 377.461L610.689 397.55H607.559ZM598.653 390.237H604.401L601.584 383.806L598.653 390.237ZM630.141 379.595V383.01C628.585 381.606 626.868 380.904 624.99 380.904C622.942 380.904 621.272 381.587 619.982 382.953C618.711 384.3 618.076 386.026 618.076 388.132C618.076 390.161 618.73 391.859 620.039 393.225C621.348 394.572 623.008 395.245 625.019 395.245C626.897 395.245 628.604 394.515 630.141 393.054V396.497C628.547 397.446 626.811 397.92 624.933 397.92C622.297 397.92 620.058 397.047 618.218 395.302C616.189 393.405 615.174 391.015 615.174 388.132C615.174 385.096 616.189 382.621 618.218 380.705C619.963 379.055 622.249 378.229 625.076 378.229C627.03 378.229 628.718 378.685 630.141 379.595ZM640.046 378.571V386.083H648.184V378.571H651.087V397.55H648.184V388.814H640.046V397.55H637.144V378.571H640.046ZM668.683 381.303H664.329V397.55H661.427V381.303H657.073V378.571H668.683V381.303ZM695.234 381.416L692.901 382.782C692.711 382.327 692.427 381.929 692.048 381.587C691.478 381.132 690.796 380.904 689.999 380.904C689.145 380.904 688.481 381.122 688.007 381.559C687.552 381.995 687.324 382.536 687.324 383.181C687.324 384.167 688.007 384.935 689.373 385.485L691.279 386.254C694.257 387.468 695.747 389.327 695.747 391.831C695.747 393.633 695.168 395.103 694.011 396.241C692.873 397.36 691.412 397.92 689.629 397.92C687.789 397.92 686.3 397.284 685.162 396.013C684.232 394.97 683.701 393.737 683.568 392.314L686.442 391.688C686.442 392.599 686.707 393.405 687.239 394.107C687.845 394.866 688.671 395.245 689.714 395.245C690.606 395.245 691.345 394.951 691.934 394.363C692.54 393.775 692.844 393.007 692.844 392.058C692.844 391.186 692.588 390.512 692.076 390.038C691.583 389.564 690.928 389.156 690.113 388.814L688.292 388.046C685.711 386.965 684.422 385.362 684.422 383.237C684.422 381.872 684.915 380.695 685.901 379.709C686.906 378.723 688.263 378.229 689.97 378.229C691.507 378.229 692.778 378.656 693.783 379.51C694.371 380.041 694.855 380.677 695.234 381.416ZM716.849 379.595V383.01C715.293 381.606 713.577 380.904 711.699 380.904C709.65 380.904 707.981 381.587 706.691 382.953C705.42 384.3 704.784 386.026 704.784 388.132C704.784 390.161 705.439 391.859 706.748 393.225C708.057 394.572 709.717 395.245 711.727 395.245C713.605 395.245 715.313 394.515 716.849 393.054V396.497C715.256 397.446 713.52 397.92 711.642 397.92C709.005 397.92 706.767 397.047 704.927 395.302C702.897 393.405 701.882 391.015 701.882 388.132C701.882 385.096 702.897 382.621 704.927 380.705C706.672 379.055 708.958 378.229 711.784 378.229C713.738 378.229 715.426 378.685 716.849 379.595ZM726.755 378.571V386.083H734.893V378.571H737.795V397.55H734.893V388.814H726.755V397.55H723.852V378.571H726.755ZM747.679 381.046C749.557 379.168 751.91 378.229 754.736 378.229C757.563 378.229 759.915 379.168 761.793 381.046C763.671 382.924 764.61 385.267 764.61 388.075C764.61 390.882 763.671 393.225 761.793 395.103C759.915 396.981 757.563 397.92 754.736 397.92C751.91 397.92 749.557 396.981 747.679 395.103C745.801 393.225 744.862 390.882 744.862 388.075C744.862 385.267 745.801 382.924 747.679 381.046ZM749.728 393.253C751.037 394.581 752.707 395.245 754.736 395.245C756.766 395.245 758.435 394.581 759.744 393.253C761.053 391.907 761.708 390.18 761.708 388.075C761.708 385.969 761.053 384.252 759.744 382.924C758.435 381.578 756.766 380.904 754.736 380.904C752.707 380.904 751.037 381.578 749.728 382.924C748.419 384.252 747.765 385.969 747.765 388.075C747.765 390.18 748.419 391.907 749.728 393.253ZM773.574 381.046C775.452 379.168 777.805 378.229 780.631 378.229C783.458 378.229 785.81 379.168 787.688 381.046C789.566 382.924 790.505 385.267 790.505 388.075C790.505 390.882 789.566 393.225 787.688 395.103C785.81 396.981 783.458 397.92 780.631 397.92C777.805 397.92 775.452 396.981 773.574 395.103C771.696 393.225 770.757 390.882 770.757 388.075C770.757 385.267 771.696 382.924 773.574 381.046ZM775.623 393.253C776.932 394.581 778.601 395.245 780.631 395.245C782.661 395.245 784.33 394.581 785.639 393.253C786.948 391.907 787.602 390.18 787.602 388.075C787.602 385.969 786.948 384.252 785.639 382.924C784.33 381.578 782.661 380.904 780.631 380.904C778.601 380.904 776.932 381.578 775.623 382.924C774.314 384.252 773.66 385.969 773.66 388.075C773.66 390.18 774.314 391.907 775.623 393.253ZM797.562 378.571H800.465V394.818H806.042V397.55H797.562V378.571Z" fill="#212E52"/>
</svg>
