<svg width="750" height="750" viewBox="0 0 750 750" fill="none" xmlns="http://www.w3.org/2000/svg">
<path d="M285.794 467.224L282.057 470.304L279.203 472.724C277.618 471.227 277.693 471.361 276.485 470.304C274.643 468.704 272.394 467.903 269.736 467.903C266.807 467.903 264.542 468.704 262.942 470.304C261.432 471.814 260.677 473.565 260.677 475.558C260.677 477.762 261.628 479.634 263.531 481.174C264.769 482.17 268.075 483.786 273.451 486.02C278.856 488.285 282.465 490.036 284.276 491.274C289.41 494.807 291.977 499.472 291.977 505.269C291.977 511.066 289.908 515.867 285.771 519.671C281.815 523.295 276.546 525.106 269.963 525.106C263.41 525.106 258.019 522.963 253.792 518.675C251.05 515.194 250.863 514.82 248.992 510.33L257.037 505.839C258.034 509.312 259.937 511.232 261.628 512.923C263.983 515.278 266.928 516.456 270.461 516.456C273.813 516.456 276.576 515.505 278.75 513.602C280.955 511.7 282.057 509.3 282.057 506.401C282.057 503.684 281.106 501.495 279.203 499.834C277.603 498.475 274.523 496.83 269.963 494.897C264.497 492.602 260.752 490.821 258.729 489.553C253.444 486.261 250.802 481.959 250.802 476.645C250.802 471.753 252.569 467.662 256.102 464.371C259.726 460.959 264.331 459.253 269.917 459.253C276.954 459.253 281.113 461.095 285.794 467.224Z" fill="#212E52"/>
<path d="M354.015 515.93H382.354V525.11H344.037V459.253H382.354V468.533H354.015V486.494H374.97V495.674H354.015V515.93Z" fill="#212E52"/>
<path d="M434 525L463.204 459.253H472.495L501 525H490L482.242 507.154H453.275L446 525H434ZM467.758 473.696L457.374 497.647H478.143L467.758 473.696Z" fill="#212E52"/>
<path d="M546.393 235.608C546.392 142.399 471.987 66.5672 379.331 64.2696V64.5061L511.452 339.331C533.375 310.535 546.393 274.592 546.393 235.608ZM245.139 347.464C276.569 383.92 323.089 407 375 407C426.912 407 473.432 383.92 504.862 347.464H245.139ZM379.331 340.247H503.885L379.331 81.1612V340.247ZM247.559 340.247H372.113V81.1612L247.559 340.247ZM203.608 235.608C203.608 275.115 216.977 311.499 239.436 340.486L372.113 64.5061V64.2407C278.788 65.7821 203.608 141.915 203.608 235.608ZM553.61 235.608C553.61 277.552 539.148 316.117 514.944 346.595L515.362 347.464H514.254C481.517 388.167 431.301 414.217 375 414.217C276.357 414.217 196.392 334.25 196.392 235.608C196.392 137.93 274.802 58.5656 372.113 57.0235V57H379.331V57.0515C475.973 59.3508 553.61 138.413 553.61 235.608Z" fill="#F6A11B"/>
<g clip-path="url(#clip0_2732_439)">
<path d="M261.427 616.85V626.03H223.109V560.173H233.088V616.85H261.427ZM328.44 560.173V626.03H318.462V560.173H328.44ZM400.795 626.03H390.816V560.173H429.134V569.453H400.795V589.21H421.749V598.49H400.795V626.03ZM497.122 616.85H525.461V626.03H487.144V560.173H525.461V569.453H497.122V587.414H518.077V596.594H497.122V616.85Z" fill="#212E52"/>
</g>
<g clip-path="url(#clip1_2732_439)">
<path d="M265.392 691.803V683.608L259.161 672.824H262.461L266.843 680.421L271.225 672.824H274.526L268.295 683.608V691.803H265.392ZM291.669 691.803L289.677 687.222H281.568L279.49 691.803H276.361L285.807 671.714L294.799 691.803H291.669ZM282.763 684.49H288.511L285.694 678.059L282.763 684.49ZM314.25 673.848V677.263C312.695 675.859 310.978 675.157 309.1 675.157C307.051 675.157 305.382 675.84 304.092 677.206C302.821 678.553 302.186 680.279 302.186 682.384C302.186 684.414 302.84 686.112 304.149 687.478C305.458 688.825 307.118 689.498 309.129 689.498C311.007 689.498 312.714 688.768 314.25 687.307V690.75C312.657 691.698 310.921 692.173 309.043 692.173C306.407 692.173 304.168 691.3 302.328 689.555C300.299 687.658 299.283 685.268 299.283 682.384C299.283 679.349 300.299 676.874 302.328 674.958C304.073 673.307 306.359 672.482 309.186 672.482C311.14 672.482 312.828 672.938 314.25 673.848ZM324.156 672.824V680.336H332.294V672.824H335.196V691.803H332.294V683.067H324.156V691.803H321.254V672.824H324.156ZM352.792 675.555H348.439V691.803H345.537V675.555H341.183V672.824H352.792V675.555ZM379.344 675.669L377.011 677.035C376.821 676.58 376.537 676.181 376.157 675.84C375.588 675.385 374.905 675.157 374.109 675.157C373.255 675.157 372.591 675.375 372.117 675.811C371.662 676.248 371.434 676.788 371.434 677.433C371.434 678.42 372.117 679.188 373.483 679.738L375.389 680.506C378.367 681.72 379.856 683.579 379.856 686.083C379.856 687.886 379.278 689.356 378.121 690.494C376.983 691.613 375.522 692.173 373.739 692.173C371.898 692.173 370.41 691.537 369.271 690.266C368.342 689.223 367.811 687.99 367.678 686.567L370.552 685.941C370.552 686.852 370.817 687.658 371.349 688.36C371.955 689.119 372.781 689.498 373.824 689.498C374.715 689.498 375.455 689.204 376.044 688.616C376.65 688.028 376.954 687.26 376.954 686.311C376.954 685.438 376.698 684.765 376.186 684.291C375.693 683.817 375.038 683.409 374.222 683.067L372.401 682.299C369.821 681.218 368.532 679.615 368.532 677.49C368.532 676.124 369.025 674.948 370.011 673.962C371.016 672.975 372.373 672.482 374.08 672.482C375.617 672.482 376.888 672.909 377.893 673.763C378.481 674.294 378.965 674.929 379.344 675.669ZM400.959 673.848V677.263C399.403 675.859 397.687 675.157 395.809 675.157C393.76 675.157 392.091 675.84 390.801 677.206C389.529 678.553 388.894 680.279 388.894 682.384C388.894 684.414 389.549 686.112 390.858 687.478C392.166 688.825 393.826 689.498 395.837 689.498C397.715 689.498 399.422 688.768 400.959 687.307V690.75C399.365 691.698 397.63 692.173 395.752 692.173C393.115 692.173 390.876 691.3 389.036 689.555C387.007 687.658 385.992 685.268 385.992 682.384C385.992 679.349 387.007 676.874 389.036 674.958C390.781 673.307 393.067 672.482 395.894 672.482C397.848 672.482 399.536 672.938 400.959 673.848ZM410.865 672.824V680.336H419.003V672.824H421.905V691.803H419.003V683.067H410.865V691.803H407.962V672.824H410.865ZM431.789 675.299C433.667 673.421 436.02 672.482 438.846 672.482C441.673 672.482 444.025 673.421 445.903 675.299C447.781 677.177 448.72 679.52 448.72 682.327C448.72 685.135 447.781 687.478 445.903 689.356C444.025 691.234 441.673 692.173 438.846 692.173C436.02 692.173 433.667 691.234 431.789 689.356C429.911 687.478 428.972 685.135 428.972 682.327C428.972 679.52 429.911 677.177 431.789 675.299ZM433.838 687.506C435.147 688.834 436.817 689.498 438.846 689.498C440.876 689.498 442.545 688.834 443.854 687.506C445.163 686.159 445.817 684.433 445.817 682.327C445.817 680.222 445.163 678.505 443.854 677.177C442.545 675.83 440.876 675.157 438.846 675.157C436.817 675.157 435.147 675.83 433.838 677.177C432.529 678.505 431.875 680.222 431.875 682.327C431.875 684.433 432.529 686.159 433.838 687.506ZM457.684 675.299C459.562 673.421 461.915 672.482 464.741 672.482C467.567 672.482 469.92 673.421 471.797 675.299C473.675 677.177 474.614 679.52 474.614 682.327C474.614 685.135 473.675 687.478 471.797 689.356C469.92 691.234 467.567 692.173 464.741 692.173C461.915 692.173 459.562 691.234 457.684 689.356C455.806 687.478 454.867 685.135 454.867 682.327C454.867 679.52 455.806 677.177 457.684 675.299ZM459.733 687.506C461.042 688.834 462.711 689.498 464.741 689.498C466.771 689.498 468.44 688.834 469.749 687.506C471.058 686.159 471.712 684.433 471.712 682.327C471.712 680.222 471.058 678.505 469.749 677.177C468.44 675.83 466.771 675.157 464.741 675.157C462.711 675.157 461.042 675.83 459.733 677.177C458.424 678.505 457.769 680.222 457.769 682.327C457.769 684.433 458.424 686.159 459.733 687.506ZM481.672 672.824H484.575V689.071H490.152V691.803H481.672V672.824Z" fill="#212E52"/>
</g>
<defs>
<clipPath id="clip0_2732_439">
<rect width="302.346" height="65.8572" fill="white" transform="translate(223.109 560.173)"/>
</clipPath>
<clipPath id="clip1_2732_439">
<rect width="231.096" height="20.764" fill="white" transform="translate(259.161 671.714)"/>
</clipPath>
</defs>
</svg>
